<svg width="72" height="78" viewBox="0 0 72 78" fill="none" xmlns="http://www.w3.org/2000/svg">
<path d="M3.34006 24.4303C1.98296 17.9433 6.14155 11.5844 12.6285 10.2273L46.3767 3.1671C52.8637 1.81 59.2226 5.96859 60.5797 12.4556L69.1368 53.3589C70.4939 59.8459 66.3353 66.2048 59.8483 67.5619L26.1001 74.6221C19.6132 75.9792 13.2543 71.8206 11.8972 65.3336L3.34006 24.4303Z" fill="#85858A"/>
<path d="M12.7309 10.7167L46.4788 3.65656C52.6955 2.356 58.7895 6.34132 60.09 12.558L68.6472 53.4616C69.9476 59.6782 65.9623 65.7722 59.7457 67.0727L25.9978 74.1329C19.7812 75.4335 13.6873 71.448 12.3866 65.2315L3.82946 24.3279C2.52891 18.1112 6.51423 12.0173 12.7309 10.7167Z" stroke="#D5D5D5"/>
<path d="M45.9883 46.1309L29.5052 49.5792L28.3503 44.0587L44.8334 40.6104L45.9883 46.1309ZM52.8641 50.0868L45.8166 51.5611L33.0671 30.0766L34.7115 29.7326L31.6435 54.5262L24.8701 55.9432L29.3499 25.7868L36.6323 24.2634L52.8641 50.0868Z" fill="white"/>
</svg>
