<svg width="117" height="120" viewBox="0 0 117 120" fill="none" xmlns="http://www.w3.org/2000/svg">
<path d="M15.7637 21.6125C18.0343 9.67624 29.5512 1.84071 41.4874 4.11133L94.743 14.2421C106.679 16.5128 114.515 28.0297 112.244 39.9659L101.147 98.2998C98.8766 110.236 87.3597 118.072 75.4235 115.801L22.1679 105.67C10.2317 103.399 2.39619 91.8825 4.66682 79.9463L15.7637 21.6125Z" fill="url(#paint0_linear_188_70669)"/>
<path d="M30.9907 91.5632L33.8008 76.791L37.3712 77.4702L36.1829 83.7167L36.3777 83.7537L42.4491 78.4362L46.6543 79.2361L40.1635 84.8326L43.9379 94.0262L39.6678 93.2139L37.0938 86.7076L35.3226 88.2392L34.5611 92.2424L30.9907 91.5632Z" fill="white"/>
<path d="M22.9688 90.2474C21.8195 90.0287 20.8276 89.6507 19.9931 89.1133C19.1644 88.572 18.5526 87.9374 18.1579 87.2096C17.769 86.4779 17.6504 85.7129 17.8023 84.9147C17.9184 84.304 18.1717 83.7717 18.5619 83.3178C18.9522 82.8638 19.4294 82.5161 19.9936 82.2747C20.5634 82.0293 21.1677 81.9175 21.8063 81.9394L21.8282 81.824C21.0439 81.5203 20.4497 81.0161 20.0457 80.3114C19.6464 79.6077 19.5241 78.8495 19.6787 78.0368C19.825 77.2674 20.1886 76.6265 20.7694 76.1142C21.355 75.6028 22.087 75.2512 22.9655 75.0596C23.8489 74.8689 24.8123 74.8728 25.8557 75.0713C26.8992 75.2698 27.7943 75.6194 28.5411 76.1202C29.2927 76.622 29.8446 77.2177 30.1967 77.9076C30.5536 78.5983 30.6589 79.3283 30.5125 80.0977C30.357 80.9152 29.9595 81.577 29.3201 82.0832C28.6865 82.5855 27.9539 82.8348 27.1225 82.8311L27.1006 82.9465C27.6978 83.1598 28.214 83.4847 28.6491 83.9212C29.09 84.3539 29.4086 84.8529 29.605 85.4185C29.8061 85.9849 29.8486 86.5735 29.7325 87.1842C29.5806 87.9824 29.1871 88.6499 28.5518 89.1868C27.9174 89.7189 27.1154 90.0845 26.1458 90.2837C25.1819 90.479 24.1229 90.4669 22.9688 90.2474ZM23.4504 87.7156C23.888 87.7989 24.2882 87.7903 24.6511 87.6899C25.0149 87.5847 25.319 87.4009 25.5632 87.1384C25.8123 86.8769 25.9725 86.5586 26.0438 86.1835C26.117 85.7988 26.0858 85.4391 25.9502 85.1044C25.8145 84.7697 25.5944 84.4861 25.2898 84.2538C24.991 84.0176 24.6275 83.8587 24.1996 83.7773C23.7764 83.6968 23.3801 83.7111 23.0105 83.8202C22.6419 83.9245 22.3331 84.1074 22.084 84.3689C21.835 84.6305 21.6738 84.9536 21.6007 85.3383C21.5293 85.7134 21.559 86.0678 21.6899 86.4016C21.8264 86.7315 22.0446 87.0122 22.3444 87.2436C22.6489 87.476 23.0176 87.6333 23.4504 87.7156ZM24.6785 81.26C25.0535 81.3314 25.4 81.3175 25.7177 81.2185C26.0403 81.1205 26.3095 80.9499 26.5251 80.7069C26.7455 80.4649 26.8887 80.1707 26.9546 79.8245C27.0204 79.4783 26.9944 79.1569 26.8764 78.8604C26.7632 78.5648 26.5765 78.3151 26.3163 78.1111C26.0571 77.9024 25.7375 77.7618 25.3577 77.6896C24.9826 77.6182 24.6337 77.6316 24.3111 77.7297C23.9895 77.8229 23.7217 77.9863 23.5079 78.2196C23.2941 78.453 23.1543 78.7428 23.0884 79.089C23.0226 79.4353 23.0453 79.761 23.1566 80.0662C23.2737 80.3675 23.4638 80.6253 23.727 80.8398C23.991 81.0495 24.3082 81.1896 24.6785 81.26Z" fill="white"/>
<path d="M33.907 34.9849L29.2022 40.5653C28.7398 41.1119 27.9273 41.1813 27.38 40.7227C26.8334 40.2603 26.7649 39.4479 27.2236 38.9006L27.2257 38.9L32.7768 32.3145L33.907 34.9849ZM36.835 22.436C37.2943 22.3038 37.787 22.4399 38.1194 22.7857L39.216 23.9347C39.5652 24.3004 39.6707 24.8342 39.4823 25.3045L36.8356 31.9594L40.8287 41.3972C41.1044 42.0547 40.7995 42.8131 40.1414 43.0926C39.4839 43.3683 38.7254 43.0634 38.446 42.4053L33.5088 30.7291C33.3794 30.4245 33.3726 30.0794 33.4906 29.7693L35.0658 25.6224L32.5842 26.3244L31.168 29.8136C30.8968 30.4762 30.146 30.7933 29.4827 30.5258L29.4887 30.526C28.8261 30.2548 28.509 29.5049 28.7762 28.8417L30.4304 24.7655C30.5791 24.3956 30.8914 24.1168 31.2742 24.0085L36.835 22.436ZM43.7075 29.5925C44.3323 29.9413 44.554 30.7255 44.2052 31.3503C43.8564 31.975 43.072 32.1976 42.4473 31.8489L39.0291 29.9392L39.0289 29.9351L39.9924 27.514L43.7075 29.5925ZM40.416 17.0623C41.818 17.329 42.7392 18.6818 42.4725 20.0838C42.2058 21.4859 40.8521 22.4069 39.45 22.1402C38.048 21.8734 37.1279 20.5199 37.3946 19.1179C37.6614 17.7159 39.014 16.7957 40.416 17.0623Z" fill="white"/>
<ellipse cx="86.1347" cy="38.914" rx="15.5069" ry="15.507" transform="rotate(10.7707 86.1347 38.914)" fill="#2AA8FF"/>
<path fill-rule="evenodd" clip-rule="evenodd" d="M92.2365 33.8048C92.722 33.2931 93.4891 33.2912 93.9484 33.8001C94.4078 34.3091 94.3862 35.138 93.9007 35.6497L84.8965 44.9493C84.3491 45.5252 83.4661 45.4395 83.0538 44.7826L79.5972 39.2289C79.2279 38.6381 79.3809 37.8214 79.9395 37.4045C80.498 36.9876 81.2499 37.128 81.6191 37.7189L84.2827 41.9982L92.2365 33.8048Z" fill="white"/>
<defs>
<linearGradient id="paint0_linear_188_70669" x1="60.4983" y1="7.72778" x2="43.1108" y2="99.1306" gradientUnits="userSpaceOnUse">
<stop stop-color="#0097FF"/>
<stop offset="1" stop-color="#007DFF"/>
</linearGradient>
</defs>
</svg>
