<svg width="65" height="72" viewBox="0 0 65 72" fill="none" xmlns="http://www.w3.org/2000/svg">
<path d="M1.31998 17.579C0.752779 10.9759 5.64584 5.16324 12.2489 4.59603L46.6012 1.64518C53.2043 1.07798 59.017 5.97104 59.5842 12.5741L63.1607 54.2097C63.7279 60.8128 58.8348 66.6255 52.2317 67.1927L17.8794 70.1435C11.2763 70.7107 5.46366 65.8176 4.89646 59.2145L1.31998 17.579Z" fill="#FF9501"/>
<path d="M12.2917 5.0942L46.6437 2.14337C52.9717 1.5998 58.5422 6.28898 59.0858 12.617L62.6623 54.2527C63.2057 60.5806 58.5166 66.1512 52.1887 66.6947L17.8367 69.6455C11.5088 70.1891 5.93832 65.4998 5.39464 59.172L1.81815 17.5362C1.27458 11.2083 5.96376 5.63777 12.2917 5.0942Z" stroke="#D5D5D5"/>
<path d="M36.6844 49.9248L30.0688 50.4931L27.6211 21.998L34.2367 21.4298L36.6844 49.9248Z" fill="white"/>
</svg>
