<svg width="121" height="125" viewBox="0 0 121 125" fill="none" xmlns="http://www.w3.org/2000/svg">
<path d="M21.0599 21.6488C24.2046 9.91258 36.268 2.94774 48.0043 6.09246L99.7429 19.9558C111.479 23.1005 118.444 35.1639 115.299 46.9002L100.107 103.599C96.9621 115.335 84.8987 122.3 73.1624 119.155L21.4238 105.292C9.68755 102.147 2.72273 90.084 5.86745 78.3478L21.0599 21.6488Z" fill="url(#paint0_linear_188_70682)"/>
<path d="M50.7957 97.592C49.5369 97.2547 48.5318 96.6658 47.7805 95.8251C47.0303 94.9797 46.5591 93.9297 46.3667 92.675C46.1756 91.4156 46.2944 89.995 46.7233 88.4134C47.1521 86.8318 47.7586 85.5545 48.5429 84.5817C49.3331 83.6053 50.2588 82.9497 51.3201 82.6149C52.3874 82.2766 53.5504 82.2762 54.8092 82.6134C56.068 82.9507 57.0749 83.5327 57.8301 84.3592C58.5912 85.1824 59.0698 86.2143 59.266 87.4549C59.4621 88.6955 59.3464 90.1043 58.9189 91.6812C58.4935 93.2688 57.8832 94.5601 57.0879 95.5553C56.2927 96.5504 55.3596 97.2241 54.2885 97.5765C53.2234 97.9254 52.0592 97.9306 50.7957 97.592ZM51.5603 94.7386C52.3118 94.94 53.0226 94.7202 53.6927 94.0792C54.3641 93.4335 54.9108 92.3139 55.3327 90.7203C55.6121 89.6776 55.7368 88.7897 55.7066 88.0567C55.6778 87.3191 55.5201 86.7331 55.2337 86.299C54.9473 85.8648 54.5529 85.5804 54.0503 85.4457C53.3035 85.2456 52.5986 85.462 51.9357 86.0949C51.274 86.723 50.7319 87.8162 50.3094 89.3743C50.0215 90.4299 49.8878 91.3329 49.9082 92.0834C49.9333 92.8352 50.0901 93.4335 50.3787 93.8783C50.6685 94.3185 51.0624 94.6052 51.5603 94.7386Z" fill="white"/>
<path d="M36.7293 93.8225C35.4705 93.4852 34.4654 92.8962 33.7141 92.0556C32.9639 91.2102 32.4927 90.1602 32.3003 88.9054C32.1092 87.646 32.228 86.2255 32.6569 84.6439C33.0857 83.0623 33.6922 81.785 34.4765 80.8121C35.2667 79.8358 36.1924 79.1802 37.2537 78.8454C38.321 78.5071 39.484 78.5066 40.7428 78.8439C42.0016 79.1812 43.0085 79.7631 43.7637 80.5897C44.5248 81.4129 45.0034 82.4447 45.1996 83.6854C45.3957 84.926 45.28 86.3348 44.8525 87.9117C44.4271 89.4993 43.8168 90.7906 43.0215 91.7857C42.2263 92.7809 41.2932 93.4546 40.2221 93.8069C39.157 94.1559 37.9928 94.1611 36.7293 93.8225ZM37.4938 90.9691C38.2454 91.1705 38.9562 90.9506 39.6263 90.3096C40.2977 89.6639 40.8444 88.5443 41.2663 86.9508C41.5457 85.9081 41.6704 85.0202 41.6402 84.2872C41.6114 83.5495 41.4537 82.9636 41.1673 82.5294C40.8809 82.0953 40.4864 81.8108 39.9839 81.6762C39.2371 81.4761 38.5322 81.6925 37.8693 82.3253C37.2076 82.9535 36.6655 84.0467 36.243 85.6048C35.9551 86.6603 35.8214 87.5634 35.8418 88.3139C35.8669 89.0657 36.0237 89.664 36.3123 90.1088C36.6021 90.5489 36.996 90.8357 37.4938 90.9691Z" fill="white"/>
<path d="M23.059 89.9937C21.9599 89.6992 21.0356 89.2501 20.2861 88.6466C19.5426 88.0396 19.016 87.3372 18.7062 86.5393C18.3965 85.7415 18.3533 84.9068 18.5767 84.0354L22.0853 84.9755C22.0151 85.294 22.0412 85.6005 22.1636 85.8951C22.2873 86.185 22.493 86.4414 22.7806 86.6645C23.0682 86.8875 23.4186 87.0544 23.8319 87.1652C24.2453 87.2759 24.6288 87.3007 24.9825 87.2394C25.3422 87.1747 25.6459 87.037 25.8936 86.8265C26.1425 86.6113 26.31 86.334 26.3959 85.9946C26.4912 85.6576 26.4755 85.3312 26.3487 85.0154C26.2219 84.6995 25.9971 84.4203 25.6745 84.1778C25.3565 83.9365 24.9533 83.7504 24.4648 83.6195L23.0628 83.2439L23.7273 80.7639L25.1294 81.1395C25.5568 81.2541 25.9514 81.2843 26.3133 81.2302C26.6798 81.1774 26.9886 81.0487 27.2398 80.8442C27.4922 80.6349 27.6607 80.3629 27.7454 80.0282C27.8369 79.7054 27.8356 79.4004 27.7413 79.1134C27.653 78.8229 27.4862 78.5718 27.2409 78.3601C27.0003 78.1496 26.6968 77.9953 26.3304 77.8972C25.9453 77.794 25.5771 77.7683 25.2259 77.8202C24.8794 77.8733 24.5812 77.9998 24.3313 78.1997C24.0814 78.3996 23.9078 78.6626 23.8103 78.9889L20.4778 78.096C20.7175 77.2389 21.1597 76.5469 21.8043 76.0199C22.4502 75.4882 23.2268 75.145 24.1341 74.9904C25.0461 74.8371 26.0211 74.8995 27.0591 75.1776C28.0924 75.4545 28.9528 75.8789 29.6403 76.4507C30.3278 77.0226 30.8063 77.6793 31.0757 78.4211C31.3464 79.1581 31.3766 79.9188 31.1664 80.7032C30.9534 81.5171 30.5087 82.1153 29.8323 82.4979C29.1606 82.8817 28.3903 83.0227 27.5216 82.9208L27.4913 83.0335C28.574 83.4645 29.3202 84.0521 29.7299 84.7962C30.1444 85.5416 30.2303 86.3575 29.9878 87.244C29.7637 88.08 29.3183 88.7561 28.6514 89.2721C27.9905 89.7847 27.1736 90.1095 26.2005 90.2464C25.2334 90.38 24.1862 90.2957 23.059 89.9937Z" fill="white"/>
<path d="M48.7352 27.2911C48.6658 27.0732 48.4751 26.9178 48.2454 26.9C48.0184 26.8807 47.8028 27.0012 47.6995 27.2051C47.4065 27.789 47.1005 28.1956 46.8253 28.4785C48.2027 22.2899 43.0183 18.1027 42.9658 18.0562C42.8075 17.9187 42.5857 17.88 42.3909 17.9574C42.1961 18.0348 42.0606 18.2115 42.04 18.4191L41.723 19.4923C40.4205 23.8454 36.519 25.6561 36.3591 25.708C36.3388 25.7142 36.3181 25.7225 36.2994 25.7314C29.7125 28.7296 31.7273 36.9768 31.751 37.0709C32.842 40.955 36.24 42.8433 37.6719 43.2281C38.038 43.3264 38.2897 43.3662 38.3591 43.3756C42.419 44.2209 46.2504 40.7442 46.387 40.6232C51.3093 36.7378 48.8375 27.6125 48.7354 27.2909L48.7352 27.2911ZM45.2665 39.1247C45.2483 39.1406 44.3885 40.0819 42.825 40.7113C43.6039 40.0727 44.1388 39.3221 44.4187 38.4659C45.1221 36.3288 43.9607 34.3674 43.9109 34.2843C43.9062 34.2761 43.9008 34.27 43.8982 34.2623C42.4327 32.0661 42.8486 29.2934 42.8534 29.267C42.8864 29.065 42.8043 28.8599 42.6403 28.7348C42.4764 28.6097 42.2583 28.5835 42.0715 28.6654C39.1544 29.9551 37.9833 32.4971 37.5295 34.02C37.31 33.2776 37.5419 32.4271 37.5448 32.4163C37.6196 32.1537 37.4951 31.8724 37.2457 31.7544C36.9985 31.637 36.7014 31.7147 36.544 31.9389C34.7253 34.5571 34.1151 36.8233 34.7262 38.6719C34.7985 38.8883 34.8867 39.0881 34.9827 39.276C34.2943 38.5767 33.6804 37.6334 33.3224 36.3579C33.255 36.0803 31.7303 29.5613 37.4373 26.9452C37.8796 26.793 41.9107 25.279 43.0037 20.4503C44.3233 21.9934 46.6184 25.7676 44.9154 30.4723C44.8512 30.6519 44.8806 30.8545 44.9985 31.0043C45.1157 31.1563 45.3032 31.2367 45.4932 31.2206C45.6196 31.2082 46.7247 31.1299 47.5601 29.6978C47.9452 32.0972 48.091 36.4688 45.2663 39.1246L45.2665 39.1247Z" fill="white"/>
<ellipse cx="89.5471" cy="43.8045" rx="15.4048" ry="15.4049" transform="rotate(15 89.5471 43.8045)" fill="#2AA8FF"/>
<path fill-rule="evenodd" clip-rule="evenodd" d="M95.9678 39.1902C96.4863 38.7188 97.2465 38.7731 97.6642 39.311C98.082 39.8489 97.9999 40.6685 97.4814 41.1399L87.8796 49.6934C87.2951 50.2238 86.4266 50.0742 86.0662 49.3933L83.0486 43.6379C82.7261 43.0255 82.9375 42.2276 83.5214 41.8555C84.1053 41.4834 84.8399 41.6776 85.1624 42.29L87.4877 46.7248L95.9678 39.1902Z" fill="white"/>
<defs>
<linearGradient id="paint0_linear_188_70682" x1="66.4336" y1="11.0306" x2="42.5112" y2="100.31" gradientUnits="userSpaceOnUse">
<stop stop-color="#0097FF"/>
<stop offset="1" stop-color="#007DFF"/>
</linearGradient>
</defs>
</svg>
