<svg width="115" height="124" viewBox="0 0 115 124" fill="none" xmlns="http://www.w3.org/2000/svg">
<path d="M4.77545 41.8026C2.13805 29.9421 9.61489 18.1891 21.4755 15.5517L69.9369 4.77542C81.7975 2.13802 93.5504 9.61487 96.1878 21.4754L109.505 81.3638C112.142 93.2244 104.666 104.977 92.8051 107.615L44.3436 118.391C32.483 121.028 20.7301 113.552 18.0927 101.691L4.77545 41.8026Z" fill="#D5EEE1"/>
<path d="M61.1771 90.9036C59.9652 91.173 58.8398 91.1933 57.801 90.9644C56.7621 90.7355 55.8841 90.2977 55.1668 89.651C54.4549 89.003 53.9775 88.1837 53.7345 87.193L57.6299 86.3268C57.7983 86.9309 58.1567 87.3679 58.705 87.6378C59.2521 87.9022 59.8475 87.9628 60.4913 87.8197C60.9945 87.7078 61.4162 87.4976 61.7564 87.1892C62.0966 86.8807 62.3331 86.5017 62.4659 86.052C62.5975 85.5969 62.6022 85.1075 62.4801 84.5839C62.3664 84.0471 62.1515 83.6038 61.8352 83.2539C61.5244 82.9029 61.1468 82.6604 60.7025 82.5264C60.2624 82.3858 59.7881 82.372 59.2795 82.4851C58.7968 82.5868 58.3631 82.7939 57.9784 83.1066C57.5991 83.418 57.3401 83.7851 57.2013 84.2077L53.5068 84.3309L52.2368 75.2108L62.9005 72.8395L63.6206 76.0776L56.2598 77.7144L56.7501 81.719L56.8474 81.6973C57.0211 81.1761 57.3805 80.6987 57.9257 80.2652C58.4751 79.8251 59.1421 79.5178 59.9266 79.3433C60.9221 79.122 61.8611 79.1573 62.7436 79.4493C63.6304 79.7348 64.3891 80.236 65.0198 80.9531C65.656 81.669 66.0913 82.5545 66.3259 83.6095C66.5798 84.7511 66.5342 85.823 66.1893 86.8252C65.8498 87.8261 65.2518 88.6859 64.3952 89.4044C63.5429 90.1163 62.4702 90.616 61.1771 90.9036Z" fill="#059E54"/>
<path d="M50.1837 93.3564C49.5994 93.4863 49.0533 93.392 48.5452 93.0734C48.0426 92.7537 47.729 92.3011 47.6045 91.7155C47.4716 91.1432 47.5656 90.6085 47.8865 90.1113C48.2117 89.6075 48.6664 89.2906 49.2507 89.1607C49.8026 89.0379 50.3352 89.1353 50.8487 89.4526C51.3663 89.7633 51.6916 90.2048 51.8245 90.7771C51.9058 91.1679 51.8818 91.5451 51.7526 91.9088C51.6288 92.2714 51.4283 92.5828 51.1512 92.8431C50.8795 93.1023 50.557 93.2733 50.1837 93.3564Z" fill="#059E54"/>
<path d="M33.2945 96.8649L32.6521 93.9758L37.5341 87.3202C37.8971 86.808 38.2004 86.3459 38.4438 85.9341C38.686 85.5168 38.8525 85.1164 38.9432 84.7329C39.0327 84.3439 39.0317 83.9439 38.9403 83.5327C38.838 83.0728 38.6507 82.7028 38.3784 82.4227C38.1048 82.1372 37.7723 81.9443 37.381 81.8439C36.9896 81.7436 36.5667 81.7439 36.1122 81.845C35.6523 81.9473 35.2703 82.1316 34.9662 82.3979C34.6608 82.6589 34.4498 82.9868 34.3333 83.3818C34.2221 83.7756 34.2225 84.2241 34.3344 84.7272L30.5282 85.5736C30.2768 84.4428 30.3139 83.4097 30.6396 82.4743C30.9653 81.5388 31.5387 80.747 32.3598 80.0988C33.1851 79.444 34.2091 78.9807 35.4318 78.7088C36.6924 78.4285 37.835 78.3959 38.8594 78.6109C39.8838 78.826 40.7345 79.2557 41.4115 79.9001C42.0927 80.5378 42.544 81.3545 42.7653 82.35C42.9061 82.983 42.9185 83.6388 42.8026 84.3176C42.6867 84.9963 42.3823 85.7851 41.8895 86.6839C41.402 87.5815 40.6718 88.6892 39.6987 90.0071L38.1182 92.2833L38.1417 92.3888L44.8775 90.891L45.5976 94.1291L33.2945 96.8649Z" fill="#059E54"/>
<path d="M37.1808 55.4746C37.5712 57.0687 39.8556 57.0371 40.206 55.4327L46.3582 27.264C46.6667 25.8514 45.0377 24.828 43.8912 25.7141L21.0303 43.3818C19.7275 44.3887 20.6847 46.4568 22.2972 46.1193L34.276 43.6124L37.1808 55.4746Z" fill="#059E54"/>
</svg>
