<svg width="115" height="124" viewBox="0 0 115 124" fill="none" xmlns="http://www.w3.org/2000/svg">
<path d="M4.77173 41.7878C2.13638 29.9268 9.61526 18.1751 21.4763 15.5398L69.9396 4.77192C81.8007 2.13656 93.5523 9.61545 96.1876 21.4765L109.494 81.3671C112.13 93.2282 104.651 104.98 92.7899 107.615L44.3266 118.383C32.4656 121.018 20.714 113.54 18.0786 101.679L4.77173 41.7878Z" fill="#FFF2FA"/>
<path d="M48.3336 93.5098L44.6406 76.8887L48.6579 75.9961L50.2195 83.0244L50.4386 82.9757L54.3714 74.7266L59.1029 73.6754L54.859 82.4023L62.9014 90.2731L58.0969 91.3405L52.5062 85.727L51.3501 88.113L52.3509 92.6172L48.3336 93.5098Z" fill="#C73094"/>
<path d="M39.6959 95.668C38.4839 95.9373 37.3586 95.9574 36.3198 95.7283C35.281 95.4992 34.403 95.0612 33.6858 94.4143C32.9741 93.7663 32.4968 92.9469 32.2539 91.9561L36.1495 91.0906C36.3178 91.6948 36.6761 92.1318 37.2243 92.4018C37.7714 92.6663 38.3668 92.727 39.0107 92.584C39.5139 92.4722 39.9356 92.2621 40.2758 91.9537C40.6161 91.6453 40.8527 91.2663 40.9856 90.8166C41.1172 90.3616 41.1221 89.8722 41 89.3486C40.8864 88.8117 40.6715 88.3684 40.3553 88.0185C40.0445 87.6674 39.667 87.4248 39.2228 87.2907C38.7827 87.1501 38.3084 87.1362 37.7998 87.2492C37.3171 87.3508 36.8833 87.5579 36.4986 87.8705C36.1192 88.1819 35.8601 88.5489 35.7212 88.9715L32.0268 89.094L30.7583 79.9737L41.4225 77.6042L42.1419 80.8424L34.7809 82.478L35.2705 86.4826L35.3678 86.461C35.5416 85.9398 35.9011 85.4625 36.4464 85.0291C36.9959 84.589 37.6629 84.2819 38.4474 84.1075C39.4429 83.8864 40.3819 83.9219 41.2644 84.2141C42.1511 84.4996 42.9098 85.001 43.5404 85.7182C44.1764 86.4343 44.6116 87.3198 44.846 88.3748C45.0997 89.5165 45.0539 90.5883 44.7088 91.5905C44.3691 92.5914 43.771 93.451 42.9143 94.1694C42.0618 94.8811 40.989 95.3807 39.6959 95.668Z" fill="#C73094"/>
<path d="M30.2612 50.4108L27.8671 58.3205C27.631 59.096 26.8175 59.5318 26.0429 59.3001C25.2676 59.064 24.8319 58.2504 25.0634 57.4759L25.0668 57.4732L27.8897 48.1387L30.2612 50.4108ZM27.6853 36.0485C28.1037 35.7054 28.6774 35.6264 29.1779 35.8369L30.8338 36.5404C31.3607 36.7644 31.7094 37.2728 31.7241 37.8462L31.9517 45.9527L40.3309 53.9807C40.9117 54.541 40.9339 55.4655 40.3746 56.0507C39.8144 56.6317 38.8899 56.6538 38.3046 56.0945L27.941 46.1635C27.6698 45.9047 27.5079 45.5484 27.4918 45.1729L27.2734 40.1556L25.0064 41.9967L25.0962 46.2594C25.1109 47.07 24.4725 47.7364 23.6629 47.7553L23.6682 47.7521C22.8579 47.7667 22.1925 47.1289 22.1735 46.3196L22.0683 41.3391C22.0574 40.888 22.2575 40.459 22.6069 40.175L27.6853 36.0485ZM38.0385 40.4127C38.8444 40.4957 39.4266 41.2125 39.3437 42.0184C39.2606 42.8242 38.5438 43.4065 37.7379 43.3236L33.3283 42.8688L33.3255 42.8654L33.244 39.9144L38.0385 40.4127ZM29.0043 28.8559C30.5819 28.5053 32.1457 29.5005 32.4962 31.0781C32.8465 32.6556 31.8512 34.2186 30.2737 34.5691C28.6964 34.9193 27.1337 33.9247 26.783 32.3475C26.4325 30.7701 27.427 29.2066 29.0043 28.8559Z" fill="#C73094"/>
</svg>
