<svg width="71" height="77" viewBox="0 0 71 77" fill="none" xmlns="http://www.w3.org/2000/svg">
<path d="M10.709 12.6302C12.0196 6.13368 18.3485 1.92963 24.8451 3.24023L58.6429 10.0585C65.1395 11.3691 69.3435 17.6981 68.0329 24.1946L59.769 65.1582C58.4584 71.6547 52.1295 75.8588 45.633 74.5482L11.8351 67.7299C5.33854 66.4193 1.13451 60.0903 2.4451 53.5938L10.709 12.6302Z" fill="#34C85A"/>
<path d="M24.7462 3.73036L58.5438 10.5486C64.7697 11.8046 68.7985 17.8698 67.5425 24.0957L59.2786 65.0595C58.0225 71.2852 51.9573 75.3142 45.7315 74.0582L11.9339 67.2399C5.70814 65.984 1.67933 59.9187 2.93518 53.6929L11.1991 12.7291C12.4551 6.50324 18.5203 2.47437 24.7462 3.73036Z" stroke="#D5D5D5"/>
<path d="M35.5858 53.7067L29.1161 52.4015L33.7198 29.5812L40.1895 30.8864L35.5858 53.7067ZM47.9916 32.8685L25.7595 28.3834L26.8906 22.7764L49.1227 27.2614L47.9916 32.8685Z" fill="white"/>
</svg>
