<svg width="105" height="115" viewBox="0 0 105 115" fill="none" xmlns="http://www.w3.org/2000/svg">
<path d="M9.32246 22.4461C10.5445 10.3574 21.3349 1.54827 33.4236 2.77031L82.817 7.76347C94.9057 8.98551 103.715 19.776 102.493 31.8646L96.3223 92.9047C95.1002 104.993 84.3098 113.802 72.2211 112.58L22.8277 107.587C10.739 106.365 1.92991 95.5748 3.15195 83.4862L9.32246 22.4461Z" fill="#FFF7DF"/>
<path d="M56.9104 87.9199C55.4326 87.7705 54.1942 87.2916 53.1952 86.4831C52.1968 85.6691 51.4747 84.5739 51.0289 83.1975C50.5837 81.8155 50.4578 80.1956 50.6511 78.3378C50.8445 76.48 51.2934 74.9322 51.9979 73.6943C52.7085 72.4514 53.6302 71.5447 54.763 70.974C55.9019 70.3983 57.2103 70.1852 58.6881 70.3346C60.166 70.484 61.4052 70.9547 62.4059 71.7466C63.4126 72.5336 64.1397 73.607 64.5872 74.9669C65.0346 76.3269 65.1619 77.9329 64.9691 79.7852C64.7807 81.6491 64.3301 83.2135 63.6173 84.4784C62.9045 85.7433 61.9778 86.6718 60.8372 87.264C59.7027 87.8512 58.3938 88.0699 56.9104 87.9199ZM57.2491 84.5699C58.1314 84.6591 58.8909 84.2819 59.5277 83.4383C60.165 82.5891 60.5755 81.2295 60.7589 79.3596C60.8827 78.1354 60.8606 77.1137 60.6927 76.2946C60.5254 75.4699 60.241 74.8395 59.8394 74.4034C59.4378 73.9673 58.942 73.7194 58.352 73.6598C57.4752 73.5711 56.7218 73.9434 56.0916 74.7766C55.462 75.6043 55.0519 76.9332 54.8613 78.7634C54.7304 80.0036 54.745 81.044 54.9051 81.8847C55.0708 82.7259 55.3566 83.3703 55.7625 83.818C56.1691 84.2602 56.6646 84.5109 57.2491 84.5699Z" fill="#FA6B26"/>
<path d="M41.0973 86.1378C39.8621 86.013 38.7873 85.6787 37.873 85.135C36.9587 84.5914 36.2626 83.8999 35.7848 83.0605C35.3125 82.2218 35.1166 81.2939 35.1972 80.2771L39.1675 80.6784C39.1376 81.3049 39.3405 81.8323 39.7763 82.2608C40.2126 82.6837 40.7589 82.9283 41.4151 82.9946C41.9279 83.0465 42.3943 82.9794 42.8142 82.7935C43.234 82.6075 43.5777 82.3219 43.845 81.9367C44.1129 81.546 44.2711 81.0829 44.3197 80.5475C44.3804 80.0021 44.3156 79.5137 44.1252 79.0822C43.9404 78.6513 43.6581 78.3024 43.2784 78.0357C42.9048 77.7639 42.4588 77.6019 41.9405 77.5495C41.4502 77.4943 40.9734 77.5548 40.51 77.7307C40.052 77.9073 39.6908 78.1744 39.4262 78.532L35.8802 77.4883L37.5394 68.431L48.4082 69.5297L48.0746 72.83L40.5723 72.0716L39.7797 76.0275L39.879 76.0375C40.2076 75.5972 40.6988 75.2569 41.3525 75.0166C42.0124 74.7714 42.7421 74.6892 43.5417 74.77C44.5563 74.8726 45.4367 75.2011 46.1828 75.7556C46.935 76.3052 47.4979 77.0194 47.8714 77.8983C48.2504 78.7778 48.3856 79.7552 48.2769 80.8305C48.1593 81.9941 47.7793 82.9974 47.137 83.8405C46.5002 84.6841 45.6624 85.3125 44.6235 85.7255C43.5906 86.1336 42.4153 86.2711 41.0973 86.1378Z" fill="#FA6B26"/>
<path d="M25.5204 84.5628C24.23 84.4323 23.1081 84.0961 22.1546 83.554C21.2072 83.007 20.4863 82.313 19.9919 81.472C19.4976 80.631 19.2965 79.6999 19.3886 78.6786L23.5078 79.095C23.487 79.4661 23.5724 79.8062 23.764 80.1153C23.9561 80.4188 24.2343 80.6697 24.5987 80.8681C24.963 81.0665 25.3878 81.1902 25.873 81.2393C26.3583 81.2883 26.7943 81.2461 27.1811 81.1125C27.5739 80.9739 27.8904 80.7636 28.1306 80.4815C28.3713 80.1939 28.509 79.8512 28.5437 79.4537C28.5893 79.0572 28.5119 78.6928 28.3116 78.3606C28.1112 78.0284 27.8073 77.7554 27.4 77.5415C26.9982 77.3282 26.5105 77.1925 25.937 77.1346L24.291 76.9682L24.5853 74.0566L26.2314 74.223C26.7332 74.2737 27.1827 74.2356 27.5799 74.1086C27.9826 73.9822 28.3066 73.781 28.5517 73.5049C28.7974 73.2234 28.9373 72.8866 28.9714 72.4945C29.0154 72.1146 28.9581 71.7718 28.7996 71.4661C28.6472 71.1554 28.4136 70.9034 28.0989 70.71C27.7898 70.5172 27.4201 70.3991 26.99 70.3556C26.5378 70.3099 26.1189 70.3483 25.7333 70.4709C25.3532 70.594 25.0408 70.7908 24.7962 71.0614C24.5516 71.3319 24.4043 71.6596 24.3542 72.0445L20.4418 71.649C20.5548 70.641 20.9258 69.7816 21.5547 69.0708C22.1842 68.3546 22.9952 67.8265 23.9877 67.4868C24.9857 67.1476 26.0941 67.0396 27.3127 67.1628C28.5259 67.2854 29.5715 67.6056 30.4494 68.1233C31.3274 68.641 31.9857 69.2925 32.4244 70.0777C32.8637 70.8575 33.0368 71.7078 32.9437 72.6287C32.8527 73.5832 32.4617 74.3375 31.7707 74.8916C31.0851 75.4462 30.2443 75.7456 29.2483 75.7897L29.2349 75.9221C30.5317 76.2091 31.4786 76.7338 32.0756 77.4961C32.6781 78.2589 32.9239 79.1611 32.8131 80.2028C32.7138 81.1843 32.3363 82.0263 31.6803 82.7288C31.0305 83.4263 30.1707 83.941 29.101 84.273C28.0373 84.5999 26.8438 84.6965 25.5204 84.5628Z" fill="#FA6B26"/>
<path d="M41.1836 26.7862C41.0657 26.5535 40.8229 26.4134 40.5612 26.4356C40.3023 26.4555 40.0817 26.6308 40.0027 26.8794C39.7795 27.5908 39.5094 28.105 39.2513 28.4741C39.6729 21.2507 33.0769 17.4856 33.0094 17.4429C32.8062 17.3171 32.5496 17.3141 32.3446 17.437C32.1395 17.56 32.0193 17.7839 32.0339 18.0215L31.873 19.2885C31.201 24.4307 27.1417 27.1861 26.9712 27.274C26.9496 27.2846 26.9277 27.2978 26.9084 27.3112C20.0443 31.897 23.8143 40.8167 23.858 40.9183C25.7935 45.093 29.9607 46.5966 31.6417 46.7672C32.0715 46.8108 32.3619 46.8095 32.4418 46.8073C37.1634 47.0144 40.8402 42.3953 40.9719 42.234C45.8015 36.9544 41.3573 27.1294 41.1838 26.786L41.1836 26.7862ZM39.4381 40.7517C39.4205 40.773 38.6248 41.991 36.9805 42.9869C37.7404 42.1246 38.2053 41.181 38.3642 40.1652C38.766 37.629 37.1018 35.6328 37.0307 35.5484C37.0238 35.54 37.0167 35.5341 37.0124 35.526C34.9633 33.3211 34.9258 30.1217 34.9263 30.091C34.9267 29.8575 34.7969 29.6416 34.5897 29.5307C34.3825 29.4198 34.1322 29.4304 33.9371 29.5569C30.8902 31.5449 30.036 34.6229 29.8031 36.4216C29.4208 35.6256 29.5267 34.6251 29.528 34.6124C29.5643 34.3029 29.3729 34.0089 29.0708 33.9218C28.7713 33.8349 28.4513 33.9769 28.315 34.2583C26.7461 37.5411 26.4727 40.2057 27.4972 42.1758C27.6179 42.4062 27.7536 42.615 27.8959 42.8091C26.9939 42.1478 26.1313 41.1978 25.496 39.8269C25.3696 39.5266 22.4659 32.4635 28.4098 28.4696C28.8797 28.217 33.1389 25.7721 33.4884 20.1326C35.2543 21.6285 38.5243 25.4586 37.466 31.0703C37.4264 31.2844 37.4965 31.5072 37.6564 31.6543C37.816 31.8039 38.0416 31.8602 38.2524 31.8072C38.3923 31.77 39.6214 31.479 40.3002 29.7126C41.1708 32.3446 42.1317 37.2419 39.4379 40.7516L39.4381 40.7517Z" fill="#FA6B26"/>
</svg>
