<svg width="400" height="372" viewBox="0 0 400 372" fill="none" xmlns="http://www.w3.org/2000/svg">
<mask id="path-1-inside-1_188_70576" fill="white">
<path d="M136.759 12.3389C136.759 5.71149 142.132 0.338905 148.759 0.338905H183.238C189.866 0.338905 195.238 5.71149 195.238 12.3389V54.1277C195.238 60.7552 189.866 66.1278 183.238 66.1278H148.759C142.132 66.1278 136.759 60.7552 136.759 54.1278V12.3389Z"/>
<path d="M68.0679 12.3389C68.0679 5.71146 73.4404 0.338867 80.0679 0.338867H114.547C121.174 0.338867 126.547 5.71145 126.547 12.3389V54.1277C126.547 60.7551 121.174 66.1277 114.547 66.1277H80.0679C73.4404 66.1277 68.0679 60.7551 68.0679 54.1277V12.3389Z"/>
<path d="M68.0679 163.71C68.0679 157.082 73.4404 151.71 80.0679 151.71H114.547C121.174 151.71 126.547 157.082 126.547 163.71V205.499C126.547 212.126 121.174 217.499 114.547 217.499H80.0679C73.4404 217.499 68.0679 212.126 68.0679 205.499V163.71Z"/>
<path d="M68.0679 87.7583C68.0679 81.1309 73.4404 75.7583 80.0679 75.7583H114.547C121.174 75.7583 126.547 81.1308 126.547 87.7583V129.547C126.547 136.175 121.174 141.547 114.547 141.547H80.0679C73.4404 141.547 68.0679 136.175 68.0679 129.547V87.7583Z"/>
<path d="M136.759 87.7582C136.759 81.1308 142.132 75.7582 148.759 75.7582H183.238C189.866 75.7582 195.238 81.1308 195.238 87.7582V129.547C195.238 136.175 189.866 141.547 183.238 141.547H148.759C142.132 141.547 136.759 136.175 136.759 129.547V87.7582Z"/>
<path d="M0 87.7582C0 81.1308 5.37258 75.7582 12 75.7582H46.4788C53.1062 75.7582 58.4788 81.1308 58.4788 87.7582V129.547C58.4788 136.174 53.1062 141.547 46.4788 141.547H12C5.37258 141.547 0 136.174 0 129.547V87.7582Z"/>
<path d="M0 12.4309C0 5.80344 5.37258 0.43085 12 0.43085H46.4788C53.1062 0.43085 58.4788 5.80343 58.4788 12.4309V54.2197C58.4788 60.8471 53.1062 66.2197 46.4788 66.2197H12C5.37258 66.2197 0 60.8471 0 54.2197V12.4309Z"/>
<path d="M136.695 163.491C136.695 156.863 142.068 151.491 148.695 151.491H183.174C189.801 151.491 195.174 156.863 195.174 163.491V205.279C195.174 211.907 189.801 217.279 183.174 217.279H148.695C142.068 217.279 136.695 211.907 136.695 205.279V163.491Z"/>
<path d="M0 163.491C0 156.863 5.37258 151.491 12 151.491H46.4788C53.1062 151.491 58.4788 156.863 58.4788 163.491V205.279C58.4788 211.907 53.1062 217.279 46.4788 217.279H12C5.37258 217.279 0 211.907 0 205.279V163.491Z"/>
<path d="M272.894 163.929C272.894 157.302 278.267 151.929 284.894 151.929H319.373C326 151.929 331.373 157.302 331.373 163.929V205.718C331.373 212.345 326 217.718 319.373 217.718H284.894C278.267 217.718 272.894 212.345 272.894 205.718V163.929Z"/>
<path d="M341.521 163.737C341.521 157.11 346.894 151.737 353.521 151.737H388C394.628 151.737 400 157.11 400 163.737V205.526C400 212.153 394.628 217.526 388 217.526H353.521C346.894 217.526 341.521 212.153 341.521 205.526V163.737Z"/>
<path d="M204.827 163.71C204.827 157.082 210.2 151.71 216.827 151.71H251.306C257.933 151.71 263.306 157.082 263.306 163.71V205.499C263.306 212.126 257.933 217.499 251.306 217.499H216.827C210.2 217.499 204.827 212.126 204.827 205.499V163.71Z"/>
<path d="M68.0679 240.088C68.0679 233.46 73.4404 228.088 80.0679 228.088H114.547C121.174 228.088 126.547 233.46 126.547 240.088V281.877C126.547 288.504 121.174 293.877 114.547 293.877H80.0679C73.4404 293.877 68.0679 288.504 68.0679 281.877V240.088Z"/>
<path d="M136.695 239.869C136.695 233.241 142.068 227.869 148.695 227.869H183.174C189.801 227.869 195.174 233.241 195.174 239.869V281.658C195.174 288.285 189.801 293.658 183.174 293.658H148.695C142.068 293.658 136.695 288.285 136.695 281.658V239.869Z"/>
<path d="M0 239.869C0 233.241 5.37258 227.869 12 227.869H46.4788C53.1062 227.869 58.4788 233.241 58.4788 239.869V281.658C58.4788 288.285 53.1062 293.658 46.4788 293.658H12C5.37258 293.658 0 288.285 0 281.658V239.869Z"/>
<path d="M272.894 240.307C272.894 233.68 278.267 228.307 284.894 228.307H319.373C326 228.307 331.373 233.68 331.373 240.307V282.096C331.373 288.723 326 294.096 319.373 294.096H284.894C278.267 294.096 272.894 288.723 272.894 282.096V240.307Z"/>
<path d="M341.521 240.088C341.521 233.46 346.894 228.088 353.521 228.088H388C394.628 228.088 400 233.46 400 240.088V281.877C400 288.504 394.628 293.877 388 293.877H353.521C346.894 293.877 341.521 288.504 341.521 281.877V240.088Z"/>
<path d="M204.827 240.088C204.827 233.46 210.2 228.088 216.827 228.088H251.306C257.933 228.088 263.306 233.46 263.306 240.088V281.877C263.306 288.504 257.933 293.877 251.306 293.877H216.827C210.2 293.877 204.827 288.504 204.827 281.877V240.088Z"/>
<path d="M68.0679 317.235C68.0679 310.607 73.4404 305.235 80.0679 305.235H114.547C121.174 305.235 126.547 310.607 126.547 317.235V359.024C126.547 365.651 121.174 371.024 114.547 371.024H80.0679C73.4404 371.024 68.0679 365.651 68.0679 359.024V317.235Z"/>
<path d="M136.695 317.016C136.695 310.388 142.068 305.016 148.695 305.016H183.174C189.801 305.016 195.174 310.388 195.174 317.016V358.805C195.174 365.432 189.801 370.805 183.174 370.805H148.695C142.068 370.805 136.695 365.432 136.695 358.805V317.016Z"/>
<path d="M0 317.016C0 310.388 5.37258 305.016 12 305.016H46.4788C53.1062 305.016 58.4788 310.388 58.4788 317.016V358.805C58.4788 365.432 53.1062 370.805 46.4788 370.805H12C5.37258 370.805 0 365.432 0 358.805V317.016Z"/>
<path d="M272.894 317.454C272.894 310.827 278.267 305.454 284.894 305.454H319.373C326 305.454 331.373 310.827 331.373 317.454V359.243C331.373 365.87 326 371.243 319.373 371.243H284.894C278.267 371.243 272.894 365.87 272.894 359.243V317.454Z"/>
<path d="M341.521 317.235C341.521 310.607 346.893 305.235 353.521 305.235H388C394.627 305.235 400 310.607 400 317.235V359.024C400 365.651 394.627 371.024 388 371.024H353.521C346.893 371.024 341.521 365.651 341.521 359.024V317.235Z"/>
<path d="M204.827 317.235C204.827 310.607 210.2 305.235 216.827 305.235H251.306C257.933 305.235 263.306 310.607 263.306 317.235V359.024C263.306 365.651 257.933 371.024 251.306 371.024H216.827C210.2 371.024 204.827 365.651 204.827 359.024V317.235Z"/>
<path d="M272.894 87.9774C272.894 81.35 278.267 75.9774 284.894 75.9774H319.373C326 75.9774 331.373 81.35 331.373 87.9774V129.766C331.373 136.394 326 141.766 319.373 141.766H284.894C278.267 141.766 272.894 136.394 272.894 129.766V87.9774Z"/>
<path d="M341.521 87.6051C341.521 80.9776 346.894 75.6051 353.521 75.6051H388C394.628 75.6051 400 80.9776 400 87.6051V129.394C400 136.021 394.628 141.394 388 141.394H353.521C346.894 141.394 341.521 136.021 341.521 129.394V87.6051Z"/>
<path d="M204.827 87.7583C204.827 81.1309 210.2 75.7583 216.827 75.7583H251.306C257.933 75.7583 263.306 81.1309 263.306 87.7583V129.547C263.306 136.175 257.933 141.547 251.306 141.547H216.827C210.2 141.547 204.827 136.175 204.827 129.547V87.7583Z"/>
<path d="M272.894 12.6499C272.894 6.02253 278.267 0.649937 284.894 0.649937H319.373C326 0.649937 331.373 6.02252 331.373 12.6499V54.4388C331.373 61.0662 326 66.4388 319.373 66.4388H284.894C278.267 66.4388 272.894 61.0662 272.894 54.4388V12.6499Z"/>
<path d="M341.521 12.4309C341.521 5.80345 346.894 0.430865 353.521 0.430865H388C394.628 0.430865 400 5.80345 400 12.4309V54.2197C400 60.8471 394.628 66.2197 388 66.2197H353.521C346.894 66.2197 341.521 60.8471 341.521 54.2197V12.4309Z"/>
<path d="M204.827 12.4309C204.827 5.8035 210.2 0.430914 216.827 0.430914H251.306C257.933 0.430914 263.306 5.8035 263.306 12.4309V54.2198C263.306 60.8472 257.933 66.2198 251.306 66.2198H216.827C210.2 66.2198 204.827 60.8472 204.827 54.2198V12.4309Z"/>
</mask>
<path d="M136.759 12.3389C136.759 5.71149 142.132 0.338905 148.759 0.338905H183.238C189.866 0.338905 195.238 5.71149 195.238 12.3389V54.1277C195.238 60.7552 189.866 66.1278 183.238 66.1278H148.759C142.132 66.1278 136.759 60.7552 136.759 54.1278V12.3389Z" fill="#34C85A"/>
<path d="M68.0679 12.3389C68.0679 5.71146 73.4404 0.338867 80.0679 0.338867H114.547C121.174 0.338867 126.547 5.71145 126.547 12.3389V54.1277C126.547 60.7551 121.174 66.1277 114.547 66.1277H80.0679C73.4404 66.1277 68.0679 60.7551 68.0679 54.1277V12.3389Z" fill="#85858A"/>
<path d="M68.0679 163.71C68.0679 157.082 73.4404 151.71 80.0679 151.71H114.547C121.174 151.71 126.547 157.082 126.547 163.71V205.499C126.547 212.126 121.174 217.499 114.547 217.499H80.0679C73.4404 217.499 68.0679 212.126 68.0679 205.499V163.71Z" fill="#34C85A"/>
<path d="M68.0679 87.7583C68.0679 81.1309 73.4404 75.7583 80.0679 75.7583H114.547C121.174 75.7583 126.547 81.1308 126.547 87.7583V129.547C126.547 136.175 121.174 141.547 114.547 141.547H80.0679C73.4404 141.547 68.0679 136.175 68.0679 129.547V87.7583Z" fill="#34C85A"/>
<path d="M136.759 87.7582C136.759 81.1308 142.132 75.7582 148.759 75.7582H183.238C189.866 75.7582 195.238 81.1308 195.238 87.7582V129.547C195.238 136.175 189.866 141.547 183.238 141.547H148.759C142.132 141.547 136.759 136.175 136.759 129.547V87.7582Z" fill="#34C85A"/>
<path d="M0 87.7582C0 81.1308 5.37258 75.7582 12 75.7582H46.4788C53.1062 75.7582 58.4788 81.1308 58.4788 87.7582V129.547C58.4788 136.174 53.1062 141.547 46.4788 141.547H12C5.37258 141.547 0 136.174 0 129.547V87.7582Z" fill="#34C85A"/>
<path d="M0 12.4309C0 5.80344 5.37258 0.43085 12 0.43085H46.4788C53.1062 0.43085 58.4788 5.80343 58.4788 12.4309V54.2197C58.4788 60.8471 53.1062 66.2197 46.4788 66.2197H12C5.37258 66.2197 0 60.8471 0 54.2197V12.4309Z" fill="#85858A"/>
<path d="M136.695 163.491C136.695 156.863 142.068 151.491 148.695 151.491H183.174C189.801 151.491 195.174 156.863 195.174 163.491V205.279C195.174 211.907 189.801 217.279 183.174 217.279H148.695C142.068 217.279 136.695 211.907 136.695 205.279V163.491Z" fill="#34C85A"/>
<path d="M0 163.491C0 156.863 5.37258 151.491 12 151.491H46.4788C53.1062 151.491 58.4788 156.863 58.4788 163.491V205.279C58.4788 211.907 53.1062 217.279 46.4788 217.279H12C5.37258 217.279 0 211.907 0 205.279V163.491Z" fill="#34C85A"/>
<path d="M272.894 163.929C272.894 157.302 278.267 151.929 284.894 151.929H319.373C326 151.929 331.373 157.302 331.373 163.929V205.718C331.373 212.345 326 217.718 319.373 217.718H284.894C278.267 217.718 272.894 212.345 272.894 205.718V163.929Z" fill="#34C85A"/>
<path d="M341.521 163.737C341.521 157.11 346.894 151.737 353.521 151.737H388C394.628 151.737 400 157.11 400 163.737V205.526C400 212.153 394.628 217.526 388 217.526H353.521C346.894 217.526 341.521 212.153 341.521 205.526V163.737Z" fill="#34C85A"/>
<path d="M204.827 163.71C204.827 157.082 210.2 151.71 216.827 151.71H251.306C257.933 151.71 263.306 157.082 263.306 163.71V205.499C263.306 212.126 257.933 217.499 251.306 217.499H216.827C210.2 217.499 204.827 212.126 204.827 205.499V163.71Z" fill="#34C85A"/>
<path d="M272.894 87.9774C272.894 81.35 278.267 75.9774 284.894 75.9774H319.373C326 75.9774 331.373 81.35 331.373 87.9774V129.766C331.373 136.394 326 141.766 319.373 141.766H284.894C278.267 141.766 272.894 136.394 272.894 129.766V87.9774Z" fill="#85858A"/>
<path d="M341.521 87.6051C341.521 80.9776 346.894 75.6051 353.521 75.6051H388C394.628 75.6051 400 80.9776 400 87.6051V129.394C400 136.021 394.628 141.394 388 141.394H353.521C346.894 141.394 341.521 136.021 341.521 129.394V87.6051Z" fill="#85858A"/>
<path d="M204.827 87.7583C204.827 81.1309 210.2 75.7583 216.827 75.7583H251.306C257.933 75.7583 263.306 81.1309 263.306 87.7583V129.547C263.306 136.175 257.933 141.547 251.306 141.547H216.827C210.2 141.547 204.827 136.175 204.827 129.547V87.7583Z" fill="#85858A"/>
<path d="M272.894 12.6499C272.894 6.02253 278.267 0.649937 284.894 0.649937H319.373C326 0.649937 331.373 6.02252 331.373 12.6499V54.4388C331.373 61.0662 326 66.4388 319.373 66.4388H284.894C278.267 66.4388 272.894 61.0662 272.894 54.4388V12.6499Z" fill="#85858A"/>
<path d="M341.521 12.4309C341.521 5.80345 346.894 0.430865 353.521 0.430865H388C394.628 0.430865 400 5.80345 400 12.4309V54.2197C400 60.8471 394.628 66.2197 388 66.2197H353.521C346.894 66.2197 341.521 60.8471 341.521 54.2197V12.4309Z" fill="#85858A"/>
<path d="M204.827 12.4309C204.827 5.8035 210.2 0.430914 216.827 0.430914H251.306C257.933 0.430914 263.306 5.8035 263.306 12.4309V54.2198C263.306 60.8472 257.933 66.2198 251.306 66.2198H216.827C210.2 66.2198 204.827 60.8472 204.827 54.2198V12.4309Z" fill="#FF9501"/>
<path d="M136.759 12.3389C136.759 5.71149 142.132 0.338905 148.759 0.338905H183.238C189.866 0.338905 195.238 5.71149 195.238 12.3389V54.1277C195.238 60.7552 189.866 66.1278 183.238 66.1278H148.759C142.132 66.1278 136.759 60.7552 136.759 54.1278V12.3389Z" stroke="#D5D5D5" stroke-width="2" mask="url(#path-1-inside-1_188_70576)"/>
<path d="M68.0679 12.3389C68.0679 5.71146 73.4404 0.338867 80.0679 0.338867H114.547C121.174 0.338867 126.547 5.71145 126.547 12.3389V54.1277C126.547 60.7551 121.174 66.1277 114.547 66.1277H80.0679C73.4404 66.1277 68.0679 60.7551 68.0679 54.1277V12.3389Z" stroke="#D5D5D5" stroke-width="2" mask="url(#path-1-inside-1_188_70576)"/>
<path d="M68.0679 163.71C68.0679 157.082 73.4404 151.71 80.0679 151.71H114.547C121.174 151.71 126.547 157.082 126.547 163.71V205.499C126.547 212.126 121.174 217.499 114.547 217.499H80.0679C73.4404 217.499 68.0679 212.126 68.0679 205.499V163.71Z" stroke="#D5D5D5" stroke-width="2" mask="url(#path-1-inside-1_188_70576)"/>
<path d="M68.0679 87.7583C68.0679 81.1309 73.4404 75.7583 80.0679 75.7583H114.547C121.174 75.7583 126.547 81.1308 126.547 87.7583V129.547C126.547 136.175 121.174 141.547 114.547 141.547H80.0679C73.4404 141.547 68.0679 136.175 68.0679 129.547V87.7583Z" stroke="#D5D5D5" stroke-width="2" mask="url(#path-1-inside-1_188_70576)"/>
<path d="M136.759 87.7582C136.759 81.1308 142.132 75.7582 148.759 75.7582H183.238C189.866 75.7582 195.238 81.1308 195.238 87.7582V129.547C195.238 136.175 189.866 141.547 183.238 141.547H148.759C142.132 141.547 136.759 136.175 136.759 129.547V87.7582Z" stroke="#D5D5D5" stroke-width="2" mask="url(#path-1-inside-1_188_70576)"/>
<path d="M0 87.7582C0 81.1308 5.37258 75.7582 12 75.7582H46.4788C53.1062 75.7582 58.4788 81.1308 58.4788 87.7582V129.547C58.4788 136.174 53.1062 141.547 46.4788 141.547H12C5.37258 141.547 0 136.174 0 129.547V87.7582Z" stroke="#D5D5D5" stroke-width="2" mask="url(#path-1-inside-1_188_70576)"/>
<path d="M0 12.4309C0 5.80344 5.37258 0.43085 12 0.43085H46.4788C53.1062 0.43085 58.4788 5.80343 58.4788 12.4309V54.2197C58.4788 60.8471 53.1062 66.2197 46.4788 66.2197H12C5.37258 66.2197 0 60.8471 0 54.2197V12.4309Z" stroke="#D5D5D5" stroke-width="2" mask="url(#path-1-inside-1_188_70576)"/>
<path d="M136.695 163.491C136.695 156.863 142.068 151.491 148.695 151.491H183.174C189.801 151.491 195.174 156.863 195.174 163.491V205.279C195.174 211.907 189.801 217.279 183.174 217.279H148.695C142.068 217.279 136.695 211.907 136.695 205.279V163.491Z" stroke="#D5D5D5" stroke-width="2" mask="url(#path-1-inside-1_188_70576)"/>
<path d="M0 163.491C0 156.863 5.37258 151.491 12 151.491H46.4788C53.1062 151.491 58.4788 156.863 58.4788 163.491V205.279C58.4788 211.907 53.1062 217.279 46.4788 217.279H12C5.37258 217.279 0 211.907 0 205.279V163.491Z" stroke="#D5D5D5" stroke-width="2" mask="url(#path-1-inside-1_188_70576)"/>
<path d="M272.894 163.929C272.894 157.302 278.267 151.929 284.894 151.929H319.373C326 151.929 331.373 157.302 331.373 163.929V205.718C331.373 212.345 326 217.718 319.373 217.718H284.894C278.267 217.718 272.894 212.345 272.894 205.718V163.929Z" stroke="#D5D5D5" stroke-width="2" mask="url(#path-1-inside-1_188_70576)"/>
<path d="M341.521 163.737C341.521 157.11 346.894 151.737 353.521 151.737H388C394.628 151.737 400 157.11 400 163.737V205.526C400 212.153 394.628 217.526 388 217.526H353.521C346.894 217.526 341.521 212.153 341.521 205.526V163.737Z" stroke="#D5D5D5" stroke-width="2" mask="url(#path-1-inside-1_188_70576)"/>
<path d="M204.827 163.71C204.827 157.082 210.2 151.71 216.827 151.71H251.306C257.933 151.71 263.306 157.082 263.306 163.71V205.499C263.306 212.126 257.933 217.499 251.306 217.499H216.827C210.2 217.499 204.827 212.126 204.827 205.499V163.71Z" stroke="#D5D5D5" stroke-width="2" mask="url(#path-1-inside-1_188_70576)"/>
<path d="M68.0679 240.088C68.0679 233.46 73.4404 228.088 80.0679 228.088H114.547C121.174 228.088 126.547 233.46 126.547 240.088V281.877C126.547 288.504 121.174 293.877 114.547 293.877H80.0679C73.4404 293.877 68.0679 288.504 68.0679 281.877V240.088Z" stroke="#D5D5D5" stroke-width="2" mask="url(#path-1-inside-1_188_70576)"/>
<path d="M136.695 239.869C136.695 233.241 142.068 227.869 148.695 227.869H183.174C189.801 227.869 195.174 233.241 195.174 239.869V281.658C195.174 288.285 189.801 293.658 183.174 293.658H148.695C142.068 293.658 136.695 288.285 136.695 281.658V239.869Z" stroke="#D5D5D5" stroke-width="2" mask="url(#path-1-inside-1_188_70576)"/>
<path d="M0 239.869C0 233.241 5.37258 227.869 12 227.869H46.4788C53.1062 227.869 58.4788 233.241 58.4788 239.869V281.658C58.4788 288.285 53.1062 293.658 46.4788 293.658H12C5.37258 293.658 0 288.285 0 281.658V239.869Z" stroke="#D5D5D5" stroke-width="2" mask="url(#path-1-inside-1_188_70576)"/>
<path d="M272.894 240.307C272.894 233.68 278.267 228.307 284.894 228.307H319.373C326 228.307 331.373 233.68 331.373 240.307V282.096C331.373 288.723 326 294.096 319.373 294.096H284.894C278.267 294.096 272.894 288.723 272.894 282.096V240.307Z" stroke="#D5D5D5" stroke-width="2" mask="url(#path-1-inside-1_188_70576)"/>
<path d="M341.521 240.088C341.521 233.46 346.894 228.088 353.521 228.088H388C394.628 228.088 400 233.46 400 240.088V281.877C400 288.504 394.628 293.877 388 293.877H353.521C346.894 293.877 341.521 288.504 341.521 281.877V240.088Z" stroke="#D5D5D5" stroke-width="2" mask="url(#path-1-inside-1_188_70576)"/>
<path d="M204.827 240.088C204.827 233.46 210.2 228.088 216.827 228.088H251.306C257.933 228.088 263.306 233.46 263.306 240.088V281.877C263.306 288.504 257.933 293.877 251.306 293.877H216.827C210.2 293.877 204.827 288.504 204.827 281.877V240.088Z" stroke="#D5D5D5" stroke-width="2" mask="url(#path-1-inside-1_188_70576)"/>
<path d="M68.0679 317.235C68.0679 310.607 73.4404 305.235 80.0679 305.235H114.547C121.174 305.235 126.547 310.607 126.547 317.235V359.024C126.547 365.651 121.174 371.024 114.547 371.024H80.0679C73.4404 371.024 68.0679 365.651 68.0679 359.024V317.235Z" stroke="#D5D5D5" stroke-width="2" mask="url(#path-1-inside-1_188_70576)"/>
<path d="M136.695 317.016C136.695 310.388 142.068 305.016 148.695 305.016H183.174C189.801 305.016 195.174 310.388 195.174 317.016V358.805C195.174 365.432 189.801 370.805 183.174 370.805H148.695C142.068 370.805 136.695 365.432 136.695 358.805V317.016Z" stroke="#D5D5D5" stroke-width="2" mask="url(#path-1-inside-1_188_70576)"/>
<path d="M0 317.016C0 310.388 5.37258 305.016 12 305.016H46.4788C53.1062 305.016 58.4788 310.388 58.4788 317.016V358.805C58.4788 365.432 53.1062 370.805 46.4788 370.805H12C5.37258 370.805 0 365.432 0 358.805V317.016Z" stroke="#D5D5D5" stroke-width="2" mask="url(#path-1-inside-1_188_70576)"/>
<path d="M272.894 317.454C272.894 310.827 278.267 305.454 284.894 305.454H319.373C326 305.454 331.373 310.827 331.373 317.454V359.243C331.373 365.87 326 371.243 319.373 371.243H284.894C278.267 371.243 272.894 365.87 272.894 359.243V317.454Z" stroke="#D5D5D5" stroke-width="2" mask="url(#path-1-inside-1_188_70576)"/>
<path d="M341.521 317.235C341.521 310.607 346.893 305.235 353.521 305.235H388C394.627 305.235 400 310.607 400 317.235V359.024C400 365.651 394.627 371.024 388 371.024H353.521C346.893 371.024 341.521 365.651 341.521 359.024V317.235Z" stroke="#D5D5D5" stroke-width="2" mask="url(#path-1-inside-1_188_70576)"/>
<path d="M204.827 317.235C204.827 310.607 210.2 305.235 216.827 305.235H251.306C257.933 305.235 263.306 310.607 263.306 317.235V359.024C263.306 365.651 257.933 371.024 251.306 371.024H216.827C210.2 371.024 204.827 365.651 204.827 359.024V317.235Z" stroke="#D5D5D5" stroke-width="2" mask="url(#path-1-inside-1_188_70576)"/>
<path d="M272.894 87.9774C272.894 81.35 278.267 75.9774 284.894 75.9774H319.373C326 75.9774 331.373 81.35 331.373 87.9774V129.766C331.373 136.394 326 141.766 319.373 141.766H284.894C278.267 141.766 272.894 136.394 272.894 129.766V87.9774Z" stroke="#D5D5D5" stroke-width="2" mask="url(#path-1-inside-1_188_70576)"/>
<path d="M341.521 87.6051C341.521 80.9776 346.894 75.6051 353.521 75.6051H388C394.628 75.6051 400 80.9776 400 87.6051V129.394C400 136.021 394.628 141.394 388 141.394H353.521C346.894 141.394 341.521 136.021 341.521 129.394V87.6051Z" stroke="#D5D5D5" stroke-width="2" mask="url(#path-1-inside-1_188_70576)"/>
<path d="M204.827 87.7583C204.827 81.1309 210.2 75.7583 216.827 75.7583H251.306C257.933 75.7583 263.306 81.1309 263.306 87.7583V129.547C263.306 136.175 257.933 141.547 251.306 141.547H216.827C210.2 141.547 204.827 136.175 204.827 129.547V87.7583Z" stroke="#D5D5D5" stroke-width="2" mask="url(#path-1-inside-1_188_70576)"/>
<path d="M272.894 12.6499C272.894 6.02253 278.267 0.649937 284.894 0.649937H319.373C326 0.649937 331.373 6.02252 331.373 12.6499V54.4388C331.373 61.0662 326 66.4388 319.373 66.4388H284.894C278.267 66.4388 272.894 61.0662 272.894 54.4388V12.6499Z" stroke="#D5D5D5" stroke-width="2" mask="url(#path-1-inside-1_188_70576)"/>
<path d="M341.521 12.4309C341.521 5.80345 346.894 0.430865 353.521 0.430865H388C394.628 0.430865 400 5.80345 400 12.4309V54.2197C400 60.8471 394.628 66.2197 388 66.2197H353.521C346.894 66.2197 341.521 60.8471 341.521 54.2197V12.4309Z" stroke="#D5D5D5" stroke-width="2" mask="url(#path-1-inside-1_188_70576)"/>
<path d="M204.827 12.4309C204.827 5.8035 210.2 0.430914 216.827 0.430914H251.306C257.933 0.430914 263.306 5.8035 263.306 12.4309V54.2198C263.306 60.8472 257.933 66.2198 251.306 66.2198H216.827C210.2 66.2198 204.827 60.8472 204.827 54.2198V12.4309Z" stroke="#D5D5D5" stroke-width="2" mask="url(#path-1-inside-1_188_70576)"/>
<path d="M37.3011 42.404H20.4611V36.764H37.3011V42.404ZM43.2211 47.684H36.0211L27.9411 24.044H29.6211L21.5411 47.684H14.6211L25.1811 19.084H32.6211L43.2211 47.684Z" fill="white"/>
<path d="M169.267 47.684H162.667V24.404H169.267V47.684ZM177.307 24.804H154.627V19.084H177.307V24.804Z" fill="white"/>
<path d="M237.294 47.684H230.654V19.084H237.294V47.684Z" fill="white"/>
<path d="M106.846 38.5643L111.086 43.0043C109.78 44.6843 108.14 45.991 106.166 46.9243C104.22 47.8577 102.14 48.3243 99.9262 48.3243C97.7928 48.3243 95.8328 47.9643 94.0462 47.2443C92.2595 46.4977 90.7128 45.471 89.4062 44.1643C88.0995 42.831 87.0862 41.2443 86.3662 39.4043C85.6728 37.5643 85.3262 35.551 85.3262 33.3643C85.3262 31.1777 85.6862 29.1777 86.4062 27.3643C87.1262 25.5243 88.1395 23.951 89.4462 22.6443C90.7528 21.311 92.3128 20.2843 94.1262 19.5643C95.9395 18.8177 97.9262 18.4443 100.086 18.4443C102.3 18.4443 104.353 18.911 106.246 19.8443C108.166 20.751 109.78 22.0577 111.086 23.7643L106.846 28.2043C106.046 27.0043 105.046 26.071 103.846 25.4043C102.673 24.711 101.42 24.3643 100.086 24.3643C98.5662 24.3643 97.2195 24.751 96.0462 25.5243C94.8728 26.271 93.9528 27.3243 93.2862 28.6843C92.6462 30.0177 92.3262 31.5777 92.3262 33.3643C92.3262 35.151 92.6462 36.7243 93.2862 38.0843C93.9528 39.4443 94.8595 40.511 96.0062 41.2843C97.1795 42.031 98.5395 42.4043 100.086 42.4043C101.42 42.4043 102.673 42.071 103.846 41.4043C105.046 40.711 106.046 39.7643 106.846 38.5643Z" fill="white"/>
<path d="M305.271 47.684H298.711L288.031 19.084H295.231L302.951 41.964H301.431L309.031 19.084H315.951L305.271 47.684Z" fill="white"/>
<path d="M381.571 47.684H361.891V19.084H381.571V24.724H368.531V42.044H381.571V47.684ZM380.851 36.124H368.131V30.484H380.851V36.124Z" fill="white"/>
<path d="M27.0892 123.816H20.4492V95.2158H39.3692V100.856H27.0892V123.816ZM38.6492 112.496H26.6892V106.856H38.6492V112.496Z" fill="white"/>
<path d="M169.267 123.816H162.667V100.536H169.267V123.816ZM177.307 100.936H154.627V95.2158H177.307V100.936Z" fill="white"/>
<path d="M237.279 123.816H230.679V100.536H237.279V123.816ZM245.319 100.936H222.639V95.2158H245.319V100.936Z" fill="white"/>
<path d="M101.273 123.816H94.6328V95.2158H101.273V123.816Z" fill="white"/>
<path d="M312.545 123.816H292.865V95.2158H312.545V100.856H299.505V118.176H312.545V123.816ZM311.825 112.256H299.105V106.616H311.825V112.256Z" fill="white"/>
<path d="M366.577 123.816H359.938V95.2158H371.218C373.218 95.2158 374.978 95.6025 376.498 96.3758C378.044 97.1492 379.244 98.2292 380.097 99.6158C380.951 100.976 381.378 102.562 381.378 104.376C381.378 106.189 380.951 107.789 380.097 109.176C379.244 110.562 378.044 111.642 376.498 112.416C374.978 113.162 373.218 113.536 371.218 113.536H366.178V107.896H371.218C372.284 107.896 373.124 107.576 373.738 106.936C374.378 106.296 374.698 105.442 374.698 104.376C374.698 103.282 374.378 102.429 373.738 101.816C373.124 101.176 372.284 100.856 371.218 100.856H366.577V123.816ZM384.258 123.816H376.258L367.337 110.496H374.898L384.258 123.816Z" fill="white"/>
<path d="M27.0892 199.948H20.4492V171.348H39.3692V176.988H27.0892V199.948ZM38.6492 188.628H26.6892V182.988H38.6492V188.628Z" fill="white"/>
<path d="M169.267 199.948H162.667V176.668H169.267V199.948ZM177.307 177.068H154.627V171.348H177.307V177.068Z" fill="white"/>
<path d="M221.625 195.268L225.905 190.908C226.438 191.681 227.145 192.375 228.025 192.988C228.932 193.601 229.918 194.081 230.985 194.428C232.078 194.748 233.172 194.908 234.265 194.908C235.758 194.908 236.932 194.641 237.785 194.108C238.638 193.575 239.065 192.855 239.065 191.948C239.065 191.015 238.625 190.281 237.745 189.748C236.865 189.215 235.412 188.788 233.385 188.468C229.838 187.935 227.198 186.961 225.465 185.548C223.732 184.135 222.865 182.255 222.865 179.908C222.865 178.015 223.332 176.388 224.265 175.028C225.198 173.641 226.492 172.575 228.145 171.828C229.825 171.081 231.745 170.708 233.905 170.708C236.332 170.708 238.585 171.161 240.665 172.068C242.772 172.975 244.478 174.201 245.785 175.748L241.625 180.108C240.718 178.935 239.598 178.015 238.265 177.348C236.932 176.681 235.492 176.348 233.945 176.348C232.638 176.348 231.572 176.601 230.745 177.108C229.945 177.588 229.545 178.281 229.545 179.188C229.545 180.041 229.958 180.708 230.785 181.188C231.612 181.641 233.078 182.055 235.185 182.428C238.732 183.015 241.385 184.068 243.145 185.588C244.905 187.081 245.785 189.055 245.785 191.508C245.785 193.321 245.305 194.921 244.345 196.308C243.385 197.668 242.025 198.721 240.265 199.468C238.532 200.215 236.478 200.588 234.105 200.588C231.545 200.588 229.172 200.135 226.985 199.228C224.825 198.295 223.038 196.975 221.625 195.268Z" fill="white"/>
<path d="M101.273 199.948H94.6328V171.348H101.273V199.948Z" fill="white"/>
<path d="M305.306 199.948H298.666V171.348H305.306V199.948Z" fill="white"/>
<path d="M364.911 199.948H357.031L367.431 184.468L367.511 186.108L357.951 171.348H365.791L371.711 181.548H370.551L376.311 171.348H384.071L374.671 186.108L374.791 184.468L384.991 199.948H377.191L370.471 188.948H371.591L364.911 199.948Z" fill="white"/>
</svg>
