<svg width="95" height="107" viewBox="0 0 95 107" fill="none" xmlns="http://www.w3.org/2000/svg">
<path d="M0 18.5273C0 8.29497 8.29494 0 18.5273 0H76.4727C86.7051 0 95 8.29494 95 18.5273V88.3527C95 98.585 86.7051 106.88 76.4727 106.88H18.5273C8.29494 106.88 0 98.5851 0 88.3527V18.5273Z" fill="url(#paint0_linear_188_70544)"/>
<path d="M45.7646 89.5669C44.4957 89.5669 43.4019 89.2662 42.4834 88.6648C41.5648 88.0587 40.857 87.1898 40.3598 86.058C39.8626 84.9215 39.6164 83.5554 39.6212 81.9595C39.6259 80.3637 39.8745 79.0094 40.3669 77.8966C40.8641 76.779 41.5695 75.929 42.4834 75.3466C43.4019 74.7594 44.4957 74.4658 45.7646 74.4658C47.0336 74.4658 48.1273 74.7594 49.0459 75.3466C49.9692 75.929 50.6794 76.779 51.1766 77.8966C51.6737 79.0141 51.9199 80.3685 51.9152 81.9595C51.9152 83.5601 51.6666 84.9286 51.1695 86.0651C50.6723 87.2016 49.9644 88.0705 49.0459 88.6719C48.132 89.2686 47.0383 89.5669 45.7646 89.5669ZM45.7646 86.6902C46.5222 86.6902 47.1354 86.3042 47.6041 85.5324C48.0729 84.7558 48.3049 83.5648 48.3001 81.9595C48.3001 80.9083 48.1936 80.0417 47.9805 79.3598C47.7675 78.6732 47.4715 78.1618 47.0928 77.8256C46.714 77.4894 46.2713 77.3212 45.7646 77.3212C45.0118 77.3212 44.4034 77.7024 43.9393 78.4648C43.4753 79.2225 43.2409 80.3874 43.2362 81.9595C43.2315 83.025 43.3333 83.9081 43.5416 84.609C43.7547 85.3098 44.053 85.8331 44.4365 86.1788C44.82 86.5197 45.2627 86.6902 45.7646 86.6902Z" fill="white"/>
<path d="M31.5869 89.5669C30.318 89.5669 29.2242 89.2662 28.3056 88.6648C27.3871 88.0587 26.6792 87.1898 26.1821 86.058C25.6849 84.9215 25.4387 83.5554 25.4434 81.9595C25.4482 80.3637 25.6967 79.0094 26.1892 77.8966C26.6863 76.779 27.3918 75.929 28.3056 75.3466C29.2242 74.7594 30.318 74.4658 31.5869 74.4658C32.8558 74.4658 33.9496 74.7594 34.8681 75.3466C35.7914 75.929 36.5017 76.779 36.9988 77.8966C37.496 79.0141 37.7422 80.3685 37.7375 81.9595C37.7375 83.5601 37.4889 84.9286 36.9917 86.0651C36.4946 87.2016 35.7867 88.0705 34.8681 88.6719C33.9543 89.2686 32.8606 89.5669 31.5869 89.5669ZM31.5869 86.6902C32.3445 86.6902 32.9576 86.3042 33.4264 85.5324C33.8951 84.7558 34.1271 83.5648 34.1224 81.9595C34.1224 80.9083 34.0159 80.0417 33.8028 79.3598C33.5897 78.6732 33.2938 78.1618 32.915 77.8256C32.5362 77.4894 32.0935 77.3212 31.5869 77.3212C30.8341 77.3212 30.2256 77.7024 29.7616 78.4648C29.2976 79.2225 29.0632 80.3874 29.0585 81.9595C29.0537 83.025 29.1555 83.9081 29.3639 84.609C29.5769 85.3098 29.8752 85.8331 30.2588 86.1788C30.6423 86.5197 31.085 86.6902 31.5869 86.6902Z" fill="white"/>
<path d="M17.7642 89.4106C16.6562 89.4106 15.6738 89.2212 14.8168 88.8424C13.9645 88.4588 13.2921 87.9308 12.7997 87.2584C12.3073 86.586 12.0563 85.8118 12.0469 84.9357H15.5838C15.598 85.253 15.6998 85.5347 15.8892 85.781C16.0786 86.0225 16.3366 86.2119 16.6634 86.3492C16.9901 86.4866 17.3617 86.5552 17.7784 86.5552C18.1951 86.5552 18.562 86.4818 18.8793 86.335C19.2012 86.1835 19.4522 85.9775 19.6321 85.7171C19.812 85.4519 19.8996 85.1488 19.8949 84.8079C19.8996 84.4669 19.8026 84.1639 19.6037 83.8987C19.4048 83.6335 19.1231 83.4275 18.7585 83.2807C18.3987 83.1339 17.9725 83.0605 17.4801 83.0605H16.0668V80.5602H17.4801C17.911 80.5602 18.2898 80.4892 18.6165 80.3471C18.9479 80.2051 19.206 80.0062 19.3906 79.7505C19.5753 79.49 19.6652 79.1917 19.6605 78.8555C19.6652 78.5288 19.5871 78.2423 19.4261 77.996C19.2699 77.7451 19.0497 77.5509 18.7656 77.4136C18.4863 77.2763 18.1619 77.2076 17.7926 77.2076C17.4044 77.2076 17.0516 77.2763 16.7344 77.4136C16.4219 77.5509 16.1733 77.7451 15.9886 77.996C15.804 78.247 15.7069 78.5382 15.6974 78.8697H12.3381C12.3475 78.0031 12.589 77.2407 13.0625 76.5825C13.536 75.9196 14.1799 75.4011 14.9943 75.027C15.8134 74.6529 16.7462 74.4658 17.7926 74.4658C18.8343 74.4658 19.7505 74.6481 20.5412 75.0128C21.3319 75.3774 21.9474 75.8746 22.3878 76.5044C22.8281 77.1295 23.0483 77.8374 23.0483 78.6282C23.053 79.4474 22.7855 80.1222 22.2457 80.6526C21.7107 81.1829 21.0218 81.5097 20.179 81.6328V81.7464C21.3059 81.879 22.1558 82.2437 22.7287 82.8403C23.3063 83.437 23.5928 84.1828 23.5881 85.0778C23.5881 85.9207 23.3395 86.6689 22.8423 87.3223C22.3499 87.9711 21.6633 88.4825 20.7827 88.8566C19.9067 89.226 18.9006 89.4106 17.7642 89.4106Z" fill="white"/>
<path d="M26.1145 23.9435C25.9944 23.7557 25.7761 23.6574 25.5555 23.6989C25.3371 23.7382 25.1646 23.9064 25.1187 24.1247C24.9899 24.7493 24.8043 25.2101 24.6165 25.5463C24.3566 19.3643 18.4277 16.7306 18.3667 16.7001C18.1833 16.6105 17.9649 16.6302 17.8011 16.7525C17.6373 16.8748 17.5544 17.0757 17.5871 17.2766L17.5587 18.3684C17.4277 22.8014 14.2131 25.4961 14.0757 25.5856C14.0582 25.5965 14.0408 25.6096 14.0255 25.6227C8.58348 30.1169 12.5515 37.3802 12.5973 37.4629C14.5998 40.8476 18.2706 41.767 19.7141 41.767C20.0831 41.767 20.3299 41.7408 20.3976 41.732C24.4287 41.5006 27.1587 37.2532 27.2567 37.1046C30.91 32.1958 26.2915 24.2205 26.1147 23.9433L26.1145 23.9435ZM25.8262 35.9759C25.8131 35.9956 25.2409 37.1005 23.9285 38.0898C24.5006 37.2905 24.8151 36.4476 24.8631 35.5697C24.9876 33.3772 23.4022 31.8225 23.3345 31.7568C23.328 31.7503 23.3214 31.7459 23.317 31.7393C21.3866 30.0404 21.0809 27.3216 21.0787 27.2955C21.0591 27.0968 20.9302 26.9242 20.7446 26.8478C20.559 26.7714 20.3472 26.8019 20.1921 26.9264C17.7724 28.8809 17.3098 31.5734 17.2658 33.1238C16.8727 32.4796 16.8771 31.6192 16.8771 31.6083C16.8814 31.3419 16.6936 31.1082 16.4294 31.0602C16.1673 31.0121 15.9075 31.1606 15.8157 31.4118C14.7632 34.3402 14.7588 36.6308 15.7983 38.2185C15.9206 38.4041 16.0538 38.5701 16.1914 38.7229C15.3681 38.2382 14.5536 37.5044 13.8963 36.3929C13.763 36.1483 10.6904 30.3898 15.4009 26.4786C15.7786 26.2231 19.1897 23.7752 19.0041 18.947C20.6332 20.0673 23.7405 23.0436 23.3212 27.9093C23.3059 28.0949 23.3846 28.2784 23.5331 28.3897C23.6816 28.5033 23.8781 28.5317 24.0528 28.4684C24.1685 28.4247 25.1883 28.0709 25.6141 26.5095C26.5794 28.6736 27.8153 32.7572 25.826 35.9759L25.8262 35.9759Z" fill="white"/>
<ellipse cx="68.659" cy="29.2049" rx="15.0008" ry="15.0008" fill="#2AA8FF"/>
<path fill-rule="evenodd" clip-rule="evenodd" d="M73.5337 23.2463C73.9025 22.6722 74.6312 22.5317 75.1598 22.9324C75.6883 23.333 75.8176 24.1246 75.4488 24.6987L68.5731 35.164C68.157 35.8102 67.3023 35.8884 66.7918 35.3387L62.5029 30.6858C62.0452 30.1911 62.0429 29.3873 62.4984 28.8901C62.9538 28.393 63.6938 28.3905 64.1514 28.8853L67.4563 32.4705L73.5337 23.2463Z" fill="white"/>
<defs>
<linearGradient id="paint0_linear_188_70544" x1="40" y1="0" x2="40" y2="96.192" gradientUnits="userSpaceOnUse">
<stop stop-color="#0097FF"/>
<stop offset="1" stop-color="#007DFF"/>
</linearGradient>
</defs>
</svg>
