<svg width="96" height="108" viewBox="0 0 96 108" fill="none" xmlns="http://www.w3.org/2000/svg">
<path d="M0.896484 22.4209C0.896484 10.2706 10.7462 0.420898 22.8965 0.420898H73.8965C86.0467 0.420898 95.8965 10.2706 95.8965 22.4209V85.2963C95.8965 97.4466 86.0467 107.296 73.8965 107.296H22.8965C10.7462 107.296 0.896484 97.4465 0.896484 85.2963V22.4209Z" fill="#D5EEE1"/>
<path d="M45.936 83.7824C44.6765 83.7824 43.5576 83.5547 42.5793 83.0992C41.6009 82.6438 40.8278 82.0169 40.2599 81.2185C39.6977 80.42 39.4053 79.5035 39.3828 78.469H43.4311C43.4648 79.1043 43.7235 79.616 44.207 80.004C44.6906 80.3863 45.2669 80.5775 45.936 80.5775C46.4589 80.5775 46.9228 80.4622 47.3276 80.2317C47.7324 80.0011 48.0501 79.6778 48.2806 79.2618C48.5112 78.8401 48.6236 78.3565 48.618 77.8111C48.6236 77.2545 48.5083 76.7681 48.2722 76.352C48.0417 75.936 47.7212 75.6127 47.3107 75.3821C46.9059 75.146 46.4392 75.0279 45.9107 75.0279C45.4103 75.0223 44.9352 75.1319 44.4854 75.3568C44.0412 75.5817 43.7038 75.8882 43.4733 76.2761L39.7876 75.5846L40.5383 66.2734H51.6205V69.6386H43.9709L43.5745 73.7122H43.6757C43.9624 73.2343 44.4235 72.8407 45.0589 72.5315C45.6998 72.2166 46.428 72.0591 47.2433 72.0591C48.2778 72.0591 49.1999 72.3009 50.0096 72.7845C50.8249 73.2624 51.4659 73.9259 51.9325 74.7749C52.4048 75.6239 52.641 76.5966 52.641 77.693C52.641 78.8794 52.3598 79.9309 51.7976 80.8474C51.2409 81.7638 50.4594 82.4835 49.4529 83.0065C48.4521 83.5237 47.2798 83.7824 45.936 83.7824Z" fill="#059E54"/>
<path d="M34.5093 83.791C33.9021 83.791 33.382 83.5774 32.9491 83.1501C32.5217 82.7227 32.3109 82.2054 32.3165 81.5982C32.3109 81.0022 32.5217 80.4933 32.9491 80.0716C33.382 79.6443 33.9021 79.4307 34.5093 79.4307C35.0829 79.4307 35.5889 79.6443 36.0275 80.0716C36.4716 80.4933 36.6965 81.0022 36.7022 81.5982C36.6965 82.003 36.5897 82.3713 36.3817 82.703C36.1793 83.0348 35.9122 83.2991 35.5805 83.4958C35.2543 83.6926 34.8973 83.791 34.5093 83.791Z" fill="#059E54"/>
<path d="M17.0128 83.5461V80.5436L23.3129 75.0277C23.7852 74.6004 24.1873 74.2096 24.519 73.8554C24.8507 73.4956 25.1038 73.1357 25.2781 72.7759C25.4524 72.4104 25.5395 72.014 25.5395 71.5867C25.5395 71.1087 25.4355 70.7011 25.2275 70.3637C25.0194 70.0208 24.7327 69.7565 24.3672 69.5709C24.0017 69.3854 23.5828 69.2926 23.1105 69.2926C22.6326 69.2926 22.2137 69.391 21.8539 69.5878C21.494 69.779 21.2129 70.0573 21.0105 70.4228C20.8137 70.7883 20.7153 71.2324 20.7153 71.7553H16.7598C16.7598 70.5802 17.024 69.5653 17.5526 68.7107C18.0811 67.856 18.8233 67.1982 19.7791 66.7371C20.7406 66.2704 21.8567 66.0371 23.1274 66.0371C24.4375 66.0371 25.5761 66.2564 26.5431 66.695C27.5102 67.1335 28.2581 67.7464 28.7866 68.5336C29.3207 69.3151 29.5878 70.2232 29.5878 71.2577C29.5878 71.9156 29.4557 72.5678 29.1914 73.2144C28.9271 73.861 28.452 74.5751 27.7661 75.3567C27.0857 76.1382 26.1186 77.0744 24.8648 78.1652L22.7985 80.0713V80.1809H29.7987V83.5461H17.0128Z" fill="#059E54"/>
<path d="M29.9746 43.4138C30.0102 45.0784 32.2793 45.5502 32.9796 44.0385L45.275 17.4984C45.8915 16.1675 44.5037 14.7953 43.1732 15.4203L16.644 27.8822C15.1322 28.5924 15.6246 30.8512 17.2958 30.8721L29.7102 31.0273L29.9746 43.4138Z" fill="#059E54"/>
</svg>
