<svg width="95" height="107" viewBox="0 0 95 107" fill="none" xmlns="http://www.w3.org/2000/svg">
<path d="M0 22C0 9.84976 9.84974 0 22 0H73C85.1503 0 95 9.84974 95 22V84.88C95 97.0302 85.1503 106.88 73 106.88H22C9.84974 106.88 0 97.0303 0 84.88V22Z" fill="url(#paint0_linear_188_70531)"/>
<path d="M27.1152 90.8479V75.3018H30.6309V81.8755H30.8226L35.6309 75.3018H39.7715L34.6152 82.2398L39.8638 90.8479H35.6593L32.0371 84.7373L30.6309 86.635V90.8479H27.1152Z" fill="white"/>
<path d="M19.2525 91.0611C18.1209 91.0611 17.11 90.8688 16.2198 90.4842C15.3344 90.0945 14.6384 89.5682 14.1317 88.9053C13.6299 88.2373 13.3789 87.4833 13.3789 86.6432C13.3789 86.0005 13.5233 85.4109 13.8121 84.8745C14.101 84.3381 14.4916 83.8928 14.984 83.5385C15.4812 83.1792 16.0352 82.949 16.646 82.8478V82.7263C15.8458 82.5694 15.19 82.1722 14.6786 81.5345C14.172 80.8969 13.9187 80.1504 13.9187 79.2952C13.9187 78.4855 14.1483 77.7644 14.6076 77.1318C15.0716 76.4992 15.7037 76.0008 16.5039 75.6364C17.3088 75.272 18.225 75.0898 19.2525 75.0898C20.2799 75.0898 21.1938 75.272 21.994 75.6364C22.7989 76.0008 23.431 76.4992 23.8903 77.1318C24.3543 77.7644 24.5863 78.4855 24.5863 79.2952C24.5863 80.1555 24.3282 80.9045 23.8121 81.5421C23.3008 82.1747 22.6497 82.5694 21.859 82.7263V82.8478C22.4651 82.949 23.0143 83.1792 23.5067 83.5385C24.0039 83.8928 24.3969 84.3381 24.6857 84.8745C24.9793 85.4109 25.1261 86.0005 25.1261 86.6432C25.1261 87.4833 24.8727 88.2373 24.3661 88.9053C23.8595 89.5682 23.1635 90.0945 22.2781 90.4842C21.3974 90.8688 20.3888 91.0611 19.2525 91.0611ZM19.2525 88.3967C19.6834 88.3967 20.0621 88.3107 20.3888 88.1386C20.7156 87.9615 20.9712 87.7161 21.1559 87.4023C21.3453 87.0885 21.44 86.7343 21.44 86.3396C21.44 85.9347 21.3453 85.5754 21.1559 85.2617C20.9665 84.9479 20.7061 84.7025 20.3746 84.5253C20.0479 84.3432 19.6739 84.2521 19.2525 84.2521C18.8358 84.2521 18.4618 84.3432 18.1303 84.5253C17.7989 84.7025 17.5385 84.9479 17.3491 85.2617C17.1597 85.5754 17.065 85.9347 17.065 86.3396C17.065 86.7343 17.1573 87.0885 17.342 87.4023C17.5314 87.711 17.7894 87.9539 18.1161 88.131C18.4476 88.3081 18.8263 88.3967 19.2525 88.3967ZM19.2525 81.6028C19.6218 81.6028 19.9485 81.5219 20.2326 81.3599C20.5214 81.198 20.7463 80.9728 20.9073 80.6843C21.073 80.3959 21.1559 80.0695 21.1559 79.7051C21.1559 79.3408 21.073 79.0194 20.9073 78.7411C20.7463 78.4627 20.5238 78.2451 20.2397 78.0883C19.9556 77.9263 19.6265 77.8453 19.2525 77.8453C18.8832 77.8453 18.5541 77.9263 18.2653 78.0883C17.9764 78.2451 17.7515 78.4627 17.5906 78.7411C17.4296 79.0194 17.3491 79.3408 17.3491 79.7051C17.3491 80.0695 17.4296 80.3959 17.5906 80.6843C17.7563 80.9677 17.9835 81.1929 18.2724 81.3599C18.5612 81.5219 18.8879 81.6028 19.2525 81.6028Z" fill="white"/>
<path d="M19.6006 32.6201L16.0215 38.9814C15.6693 39.6046 14.8841 39.8238 14.2607 39.4756C13.6375 39.1234 13.4183 38.3381 13.7666 37.7148L13.7686 37.7139L17.9912 30.207L19.6006 32.6201ZM20.1318 19.7451C20.5583 19.5294 21.0678 19.5711 21.459 19.8486L22.752 20.7725C23.1631 21.0665 23.3667 21.5713 23.2695 22.0684L21.9121 29.1006L27.5986 37.626C27.9924 38.2203 27.8346 39.0224 27.2402 39.4199C26.6459 39.8133 25.8448 39.6556 25.4473 39.0615L18.4141 28.5146C18.2298 28.2396 18.1588 27.901 18.2168 27.5742L18.9893 23.2061L16.6826 24.3604L15.9434 28.0527C15.8006 28.7542 15.1225 29.2062 14.4209 29.0674L14.4258 29.0654C13.7245 28.9227 13.2726 28.2453 13.4111 27.5439L14.2744 23.2305C14.3514 22.8393 14.607 22.507 14.9629 22.3291L20.1318 19.7451ZM28.2207 25.4912C28.8993 25.7173 29.2639 26.4463 29.0381 27.125C28.8122 27.8039 28.0823 28.1683 27.4033 27.9424L23.6885 26.7061L23.6875 26.7021L24.1816 24.1436L28.2207 25.4912ZM22.6465 13.7969C24.0736 13.7971 25.2305 14.9538 25.2305 16.3809C25.2305 17.8079 24.0736 18.9646 22.6465 18.9648C21.2191 18.9648 20.0615 17.8081 20.0615 16.3809C20.0615 14.9536 21.2192 13.7969 22.6465 13.7969Z" fill="white"/>
<ellipse cx="69.9996" cy="26.7213" rx="15.5074" ry="15.5074" fill="#2AA8FF"/>
<path fill-rule="evenodd" clip-rule="evenodd" d="M75.039 20.5605C75.4203 19.967 76.1736 19.8218 76.7199 20.236C77.2663 20.6502 77.4 21.4685 77.0187 22.062L69.9108 32.8807C69.4807 33.5487 68.5972 33.6296 68.0694 33.0613L63.6356 28.2512C63.1625 27.7398 63.1601 26.9089 63.631 26.395C64.1018 25.881 64.8667 25.8785 65.3398 26.3899L68.7563 30.0962L75.039 20.5605Z" fill="white"/>
<defs>
<linearGradient id="paint0_linear_188_70531" x1="40" y1="0" x2="40" y2="96.192" gradientUnits="userSpaceOnUse">
<stop stop-color="#0097FF"/>
<stop offset="1" stop-color="#007DFF"/>
</linearGradient>
</defs>
</svg>
