<svg width="95" height="108" viewBox="0 0 95 108" fill="none" xmlns="http://www.w3.org/2000/svg">
<path d="M0 22.4209C0 10.2706 9.84974 0.420898 22 0.420898H73C85.1503 0.420898 95 10.2706 95 22.4209V85.2963C95 97.4466 85.1503 107.296 73 107.296H22C9.84974 107.296 0 97.4465 0 85.2963V22.4209Z" fill="#FFF2FA"/>
<path d="M31.7598 83.5462V66.2734H35.9346V73.5773H36.1623L41.8721 66.2734H46.7891L40.666 73.9821L46.8987 83.5462H41.9058L37.6045 76.7569L35.9346 78.8654V83.5462H31.7598Z" fill="#C73094"/>
<path d="M22.7309 83.7834C21.4714 83.7834 20.3525 83.5556 19.3742 83.1002C18.3959 82.6448 17.6228 82.0178 17.0549 81.2194C16.4926 80.421 16.2002 79.5045 16.1777 78.47H20.226C20.2598 79.1053 20.5184 79.617 21.002 80.0049C21.4855 80.3873 22.0618 80.5784 22.7309 80.5784C23.2538 80.5784 23.7177 80.4632 24.1225 80.2327C24.5273 80.0021 24.845 79.6788 25.0756 79.2627C25.3061 78.841 25.4185 78.3575 25.4129 77.8121C25.4185 77.2555 25.3033 76.7691 25.0671 76.353C24.8366 75.9369 24.5161 75.6136 24.1056 75.3831C23.7008 75.147 23.2341 75.0289 22.7056 75.0289C22.2052 75.0233 21.7301 75.1329 21.2803 75.3578C20.8361 75.5827 20.4987 75.8892 20.2682 76.2771L16.5826 75.5855L17.3332 66.2744H28.4154V69.6396H20.7658L20.3694 73.7132H20.4706C20.7574 73.2353 21.2184 72.8417 21.8538 72.5324C22.4948 72.2176 23.2229 72.0601 24.0382 72.0601C25.0727 72.0601 25.9949 72.3019 26.8045 72.7854C27.6198 73.2634 28.2608 73.9268 28.7275 74.7759C29.1998 75.6249 29.4359 76.5976 29.4359 77.694C29.4359 78.8804 29.1548 79.9318 28.5925 80.8483C28.0359 81.7648 27.2543 82.4845 26.2479 83.0074C25.247 83.5247 24.0747 83.7834 22.7309 83.7834Z" fill="#C73094"/>
<path d="M23.3457 36.8867L19.2354 44.1934C18.8309 44.9094 17.929 45.1618 17.2129 44.7617C16.497 44.3573 16.2447 43.4562 16.6445 42.7402L16.6475 42.7383L21.498 34.1152L23.3457 36.8867ZM23.957 22.0977C24.4468 21.85 25.0322 21.8972 25.4814 22.2158L26.9658 23.2773C27.4383 23.615 27.672 24.1946 27.5605 24.7656L26.002 32.8447L32.5332 42.6377C32.9855 43.3204 32.8047 44.2406 32.1221 44.6973C31.4395 45.1495 30.5192 44.9685 30.0625 44.2861L21.9834 32.1709C21.7718 31.8549 21.6912 31.4662 21.7578 31.0908L22.6445 26.0732L19.9951 27.3984L19.1455 31.6396C18.9817 32.4456 18.2033 32.965 17.3975 32.8057L17.4033 32.8037C16.5974 32.6399 16.0788 31.8616 16.2383 31.0557L17.2295 26.1006C17.318 25.6514 17.6109 25.2707 18.0195 25.0664L23.957 22.0977ZM33.249 28.6973C34.0286 28.9569 34.4469 29.7945 34.1875 30.5742C33.9279 31.3539 33.0903 31.7731 32.3105 31.5137L28.043 30.0928L28.042 30.0889L28.6104 27.1484L33.249 28.6973ZM26.8457 15.2646C28.4851 15.2646 29.8145 16.594 29.8145 18.2334C29.8143 19.8727 28.485 21.2021 26.8457 21.2021C25.2064 21.2021 23.8771 19.8727 23.877 18.2334C23.877 16.594 25.2063 15.2646 26.8457 15.2646Z" fill="#C73094"/>
</svg>
