<svg width="96" height="108" viewBox="0 0 96 108" fill="none" xmlns="http://www.w3.org/2000/svg">
<path d="M0.447266 22.6484C0.447266 10.4982 10.297 0.648438 22.4473 0.648438H73.4473C85.5975 0.648438 95.4473 10.4982 95.4473 22.6484V85.5238C95.4473 97.6741 85.5975 107.524 73.4473 107.524H22.4473C10.297 107.524 0.447266 97.6741 0.447266 85.5238V22.6484Z" fill="#FFF7DF"/>
<path d="M55.1587 84.1953C53.6519 84.1953 52.353 83.8383 51.2622 83.1242C50.1715 82.4045 49.3309 81.3727 48.7405 80.0289C48.1501 78.6795 47.8577 77.0573 47.8634 75.1625C47.869 73.2677 48.1642 71.6596 48.7489 70.3383C49.3393 69.0113 50.1771 68.002 51.2622 67.3105C52.353 66.6133 53.6519 66.2646 55.1587 66.2646C56.6656 66.2646 57.9644 66.6133 59.0552 67.3105C60.1516 68.002 60.995 69.0113 61.5854 70.3383C62.1758 71.6652 62.4681 73.2733 62.4625 75.1625C62.4625 77.063 62.1673 78.6879 61.577 80.0373C60.9866 81.3868 60.146 82.4185 59.0552 83.1326C57.97 83.8411 56.6712 84.1953 55.1587 84.1953ZM55.1587 80.7795C56.0583 80.7795 56.7865 80.3213 57.3431 79.4048C57.8998 78.4827 58.1753 77.0686 58.1696 75.1625C58.1696 73.9143 58.0431 72.8853 57.7901 72.0757C57.5371 71.2604 57.1857 70.6531 56.7359 70.2539C56.2861 69.8547 55.7603 69.6551 55.1587 69.6551C54.2647 69.6551 53.5422 70.1077 52.9912 71.013C52.4402 71.9126 52.1619 73.2958 52.1562 75.1625C52.1506 76.4276 52.2715 77.4762 52.5189 78.3084C52.7719 79.1405 53.1261 79.7618 53.5816 80.1723C54.037 80.5771 54.5627 80.7795 55.1587 80.7795Z" fill="#FA6B26"/>
<path d="M39.02 84.0109C37.7605 84.0109 36.6416 83.7832 35.6633 83.3277C34.6849 82.8723 33.9118 82.2454 33.3439 81.447C32.7817 80.6485 32.4893 79.7321 32.4668 78.6975H36.5151C36.5488 79.3328 36.8075 79.8445 37.291 80.2325C37.7746 80.6148 38.3509 80.806 39.02 80.806C39.5429 80.806 40.0067 80.6907 40.4116 80.4602C40.8164 80.2297 41.1341 79.9064 41.3646 79.4903C41.5951 79.0686 41.7076 78.585 41.702 78.0396C41.7076 77.483 41.5923 76.9966 41.3562 76.5806C41.1257 76.1645 40.8052 75.8412 40.3947 75.6107C39.9899 75.3745 39.5232 75.2564 38.9947 75.2564C38.4943 75.2508 38.0191 75.3604 37.5693 75.5854C37.1251 75.8103 36.7878 76.1167 36.5573 76.5047L32.8716 75.8131L33.6222 66.502H44.7045V69.8671H37.0549L36.6585 73.9407H36.7597C37.0464 73.4628 37.5075 73.0692 38.1428 72.76C38.7838 72.4451 39.512 72.2877 40.3272 72.2877C41.3618 72.2877 42.2839 72.5294 43.0936 73.013C43.9089 73.4909 44.5498 74.1544 45.0165 75.0034C45.4888 75.8524 45.725 76.8251 45.725 77.9216C45.725 79.1079 45.4438 80.1594 44.8816 81.0759C44.3249 81.9924 43.5434 82.7121 42.5369 83.235C41.5361 83.7523 40.3638 84.0109 39.02 84.0109Z" fill="#FA6B26"/>
<path d="M23.135 84.0097C21.8193 84.0097 20.6526 83.7848 19.6349 83.335C18.6229 82.8796 17.8245 82.2527 17.2397 81.4542C16.6549 80.6558 16.3569 79.7365 16.3457 78.6963H20.5458C20.5627 79.0731 20.6836 79.4076 20.9085 79.7C21.1334 79.9867 21.4398 80.2116 21.8278 80.3747C22.2157 80.5378 22.6571 80.6193 23.1519 80.6193C23.6467 80.6193 24.0824 80.5321 24.4592 80.3578C24.8415 80.1779 25.1395 79.9333 25.3532 79.6241C25.5668 79.3092 25.6708 78.9494 25.6652 78.5445C25.6708 78.1397 25.5556 77.7798 25.3194 77.465C25.0833 77.1501 24.7487 76.9055 24.3158 76.7312C23.8885 76.5569 23.3824 76.4698 22.7977 76.4698H21.1193V73.501H22.7977C23.3093 73.501 23.7591 73.4167 24.1471 73.248C24.5407 73.0793 24.8471 72.8432 25.0664 72.5395C25.2857 72.2303 25.3925 71.8761 25.3869 71.4768C25.3925 71.0889 25.2997 70.7487 25.1086 70.4563C24.923 70.1583 24.6616 69.9278 24.3242 69.7648C23.9925 69.6017 23.6073 69.5202 23.1688 69.5202C22.7077 69.5202 22.2888 69.6017 21.9121 69.7648C21.541 69.9278 21.2458 70.1583 21.0265 70.4563C20.8073 70.7543 20.692 71.1001 20.6808 71.4937H16.6915C16.7027 70.4648 16.9895 69.5595 17.5518 68.778C18.114 67.9908 18.8787 67.3751 19.8458 66.9309C20.8185 66.4867 21.9262 66.2646 23.1688 66.2646C24.4057 66.2646 25.4937 66.4811 26.4327 66.9141C27.3717 67.347 28.1026 67.9374 28.6255 68.6852C29.1484 69.4274 29.4099 70.268 29.4099 71.207C29.4155 72.1797 29.0978 72.9809 28.4568 73.6106C27.8215 74.2404 27.0034 74.6283 26.0026 74.7745V74.9095C27.3408 75.0669 28.35 75.4999 29.0304 76.2083C29.7163 76.9168 30.0565 77.8023 30.0509 78.865C30.0509 79.8658 29.7557 80.7542 29.1653 81.5302C28.5805 82.3005 27.7653 82.9077 26.7195 83.3519C25.6793 83.7905 24.4845 84.0097 23.135 84.0097Z" fill="#FA6B26"/>
<path d="M33.0507 24.088C32.9081 23.8649 32.6488 23.7483 32.3869 23.7975C32.1276 23.8442 31.9227 24.0439 31.8683 24.3032C31.7153 25.0448 31.4949 25.5919 31.2719 25.9912C30.9633 18.6505 23.9231 15.5231 23.8507 15.4868C23.6328 15.3805 23.3735 15.4039 23.1791 15.5491C22.9846 15.6943 22.886 15.9328 22.9249 16.1714L22.8912 17.4679C22.7357 22.7317 18.9185 25.9316 18.7554 26.0378C18.7346 26.0508 18.7139 26.0664 18.6957 26.0819C12.2337 31.4185 16.9454 40.0432 16.9999 40.1414C19.3777 44.1605 23.7365 45.2522 25.4506 45.2522C25.8888 45.2522 26.1818 45.2211 26.2622 45.2107C31.0489 44.9359 34.2906 39.8924 34.407 39.716C38.7451 33.8871 33.2609 24.4168 33.0509 24.0877L33.0507 24.088ZM32.7083 38.3757C32.6927 38.399 32.0134 39.7111 30.4549 40.8858C31.1343 39.9367 31.5077 38.9358 31.5647 37.8933C31.7126 35.2899 29.83 33.4438 29.7496 33.3658C29.7418 33.358 29.7341 33.3528 29.7289 33.345C27.4366 31.3276 27.0736 28.0992 27.071 28.0682C27.0476 27.8323 26.8947 27.6274 26.6742 27.5366C26.4538 27.4459 26.2023 27.4822 26.0182 27.63C23.145 29.9508 22.5956 33.148 22.5434 34.989C22.0766 34.224 22.0818 33.2024 22.0818 33.1894C22.087 32.8731 21.864 32.5956 21.5502 32.5386C21.239 32.4815 20.9305 32.6579 20.8216 32.9561C19.5717 36.4334 19.5665 39.1534 20.8008 41.0386C20.946 41.259 21.1042 41.4561 21.2676 41.6376C20.29 41.062 19.3228 40.1907 18.5423 38.8709C18.3841 38.5805 14.7355 31.7425 20.3289 27.0983C20.7775 26.7949 24.8279 23.8882 24.6075 18.155C26.5419 19.4852 30.2317 23.0194 29.7338 28.7971C29.7157 29.0175 29.809 29.2354 29.9854 29.3676C30.1617 29.5024 30.3951 29.5361 30.6025 29.4609C30.7399 29.4091 31.9509 28.989 32.4565 27.135C33.6027 29.7047 35.0703 34.5537 32.7081 38.3757L32.7083 38.3757Z" fill="#FA6B26"/>
</svg>
