<svg width="107" height="219" viewBox="0 0 107 219" fill="none" xmlns="http://www.w3.org/2000/svg">
<path d="M69.4773 80.8507L36.1565 62.0258C34.8594 61.0984 33.8082 59.8685 33.0939 58.4429C32.3796 57.0173 32.0239 55.439 32.0576 53.8449L31.4741 74.9782C31.4409 76.5721 31.7971 78.1501 32.5116 79.5754C33.2261 81.0006 34.2775 82.2301 35.5746 83.1571L68.9021 101.978C70.1987 102.906 71.2496 104.135 71.9639 105.561C72.6781 106.986 73.0341 108.565 73.001 110.159L73.5847 89.0271C73.6166 87.4329 73.2593 85.855 72.5435 84.4302C71.8278 83.0054 70.7753 81.7767 69.4773 80.8507Z" fill="#30C3EF"/>
<path d="M70.3359 50.0769L36.019 67.036C34.6725 67.8902 33.5549 69.0601 32.763 70.444C31.9712 71.828 31.529 73.3843 31.4749 74.9779L32.0584 53.8446C32.1137 52.252 32.5565 50.6968 33.3484 49.3139C34.1403 47.9309 35.2574 46.7619 36.603 45.908L70.9182 28.9491C72.2646 28.095 73.3823 26.9251 74.1741 25.5411C74.966 24.1572 75.4082 22.6008 75.4623 21.0073L74.8782 42.1353C74.824 43.7286 74.3819 45.2846 73.5904 46.6685C72.7989 48.0524 71.6818 49.2224 70.3359 50.0769Z" fill="#7CD6F3"/>
<path d="M67.6093 148.877L34.2814 130.053C32.984 129.126 31.9325 127.896 31.2182 126.471C30.5039 125.045 30.1484 123.466 30.1825 121.872L29.5991 143.005C29.566 144.6 29.922 146.178 30.6362 147.603C31.3504 149.029 32.4014 150.259 33.698 151.186L67.0259 170.011C68.3235 170.938 69.3753 172.168 70.0899 173.594C70.8046 175.02 71.1605 176.598 71.1268 178.193L71.7086 157.062C71.7431 155.467 71.3878 153.888 70.6734 152.461C69.959 151.035 68.9072 149.805 67.6093 148.877Z" fill="#30C3EF"/>
<path d="M68.4578 118.108L34.1424 135.065C32.7962 135.919 31.6787 137.089 30.8869 138.473C30.0951 139.857 29.6528 141.413 29.5983 143.007L30.1818 121.874C30.2362 120.28 30.6785 118.724 31.4703 117.34C32.2622 115.956 33.3796 114.786 34.7258 113.932L69.0413 96.9745C70.3871 96.1197 71.5042 94.9497 72.296 93.5658C73.0878 92.182 73.5303 90.626 73.5853 89.0326L73.0017 110.164C72.9476 111.758 72.5054 113.315 71.7136 114.699C70.9218 116.083 69.8042 117.253 68.4578 118.108Z" fill="#7CD6F3"/>
<path d="M94.6541 125.888C93.5271 125.663 92.4706 125.17 91.5728 124.453C90.6751 123.735 89.9623 122.813 89.494 121.763L85.7307 113.323L83.9162 122.385C83.6907 123.512 83.1986 124.568 82.4809 125.466C81.7631 126.364 80.8408 127.077 79.791 127.545L71.3495 131.31L80.4126 133.123C81.5396 133.348 82.5961 133.841 83.4939 134.558C84.3916 135.276 85.1044 136.198 85.5727 137.248L89.338 145.689L91.1505 136.626C91.3765 135.499 91.8689 134.443 92.5865 133.545C93.3042 132.647 94.2263 131.935 95.2757 131.466L103.717 127.703L94.6541 125.888Z" fill="#696EAF"/>
<path d="M41.2004 193.836C39.9394 193.584 38.757 193.034 37.7524 192.231C36.7479 191.428 35.9503 190.396 35.4267 189.222L31.2162 179.783L29.1875 189.921C28.9353 191.182 28.3847 192.364 27.5819 193.368C26.7791 194.372 25.7474 195.169 24.5731 195.693L15.1309 199.904L25.2685 201.932C26.5293 202.185 27.7112 202.736 28.7154 203.539C29.7196 204.342 30.5169 205.374 31.0407 206.549L35.2516 215.991L37.2803 205.853C37.5326 204.592 38.0832 203.41 38.8859 202.406C39.6887 201.401 40.7203 200.604 41.8945 200.079L51.3385 195.868L41.2004 193.836Z" fill="#FDCB71"/>
<path d="M19.6225 90.98L15.0801 93.2138L12.8466 88.6749C12.6666 88.3087 12.4162 87.9815 12.1097 87.7121C11.8032 87.4427 11.4466 87.2362 11.0604 87.1046C10.6741 86.973 10.2657 86.9187 9.85842 86.9449C9.45118 86.9711 9.05309 87.0773 8.68688 87.2573C8.32067 87.4374 7.9935 87.6878 7.72407 87.9943C7.45464 88.3008 7.24821 88.6574 7.11658 89.0436C6.98494 89.4299 6.93068 89.8383 6.95688 90.2456C6.98309 90.6528 7.08925 91.0509 7.2693 91.4171L9.50508 95.9611L4.9644 98.1947C4.5982 98.3749 4.27107 98.6255 4.00169 98.932C3.73232 99.2386 3.52597 99.5953 3.39442 99.9816C3.12876 100.762 3.18393 101.616 3.5478 102.355C3.91167 103.095 4.55444 103.66 5.33469 103.925C6.11495 104.191 6.96878 104.136 7.70835 103.772L12.2488 101.537L14.4825 106.077C14.8463 106.817 15.4891 107.381 16.2693 107.647C17.0496 107.913 17.9034 107.858 18.643 107.494C19.3826 107.13 19.9473 106.487 20.213 105.707C20.4786 104.927 20.4235 104.073 20.0596 103.333L17.8252 98.7855L22.3641 96.5521C23.1037 96.1884 23.6686 95.5459 23.9344 94.7658C24.2003 93.9857 24.1453 93.1319 23.7817 92.3923C23.4181 91.6527 22.7755 91.0878 21.9954 90.822C21.2153 90.5561 20.3615 90.6111 19.6219 90.9747L19.6225 90.98Z" fill="#696EAF"/>
<path d="M45.1604 17.5721C49.4836 17.0903 52.5975 13.1951 52.1157 8.872C51.6339 4.54887 47.7387 1.43488 43.4156 1.9167C39.0925 2.39852 35.9785 6.2937 36.4603 10.6168C36.9421 14.94 40.8373 18.0539 45.1604 17.5721Z" fill="#FD8B9B"/>
</svg>
