<svg width="116" height="194" viewBox="0 0 116 194" fill="none" xmlns="http://www.w3.org/2000/svg">
<path d="M41.9157 164.549L76.4159 183.928C77.7587 184.884 78.8482 186.153 79.59 187.625C80.3318 189.097 80.7034 190.727 80.6727 192.376L81.2284 170.528C81.2594 168.88 80.8877 167.249 80.1455 165.777C79.4033 164.305 78.313 163.037 76.9694 162.082L42.4606 142.7C41.1175 141.744 40.0278 140.475 39.286 139.003C38.5442 137.531 38.1727 135.9 38.2037 134.252L37.648 156.1C37.6181 157.749 37.9911 159.381 38.7349 160.853C39.4786 162.326 40.5705 163.594 41.9157 164.549Z" fill="#FDB158"/>
<path d="M43.6852 94.2174L78.194 113.6C79.5372 114.555 80.6271 115.824 81.3692 117.295C82.1114 118.767 82.4834 120.398 82.453 122.046L83.0084 100.2C83.0391 98.552 82.6674 96.9213 81.9256 95.4493C81.1839 93.9773 80.0944 92.7084 78.7515 91.7525L44.238 72.3655C42.8951 71.4096 41.8056 70.1407 41.0638 68.6687C40.322 67.1967 39.9504 65.566 39.9811 63.918L39.4254 85.7656C39.3937 87.4147 39.7652 89.0467 40.5075 90.5196C41.2499 91.9925 42.3407 93.2619 43.6852 94.2174Z" fill="#FDB158"/>
<path d="M42.882 126.032L78.3156 108.409C79.7054 107.523 80.858 106.311 81.6733 104.879C82.4885 103.446 82.9417 101.836 82.9936 100.189L82.4383 122.035C82.3856 123.682 81.9318 125.292 81.1162 126.725C80.3007 128.158 79.148 129.37 77.7581 130.256L42.3245 147.879C40.9355 148.767 39.784 149.98 38.9696 151.413C38.1553 152.846 37.7027 154.456 37.6511 156.104L38.2068 134.256C38.2583 132.609 38.7111 130.998 39.5258 129.565C40.3405 128.132 41.4925 126.919 42.882 126.032Z" fill="#FDCB71"/>
<path d="M82.4565 25.699C81.1677 25.0046 80.0641 24.0115 79.238 22.8029C78.4119 21.5942 77.8874 20.2053 77.7085 18.7523L76.2624 7.06383L70.6731 17.4306C69.9784 18.7198 68.985 19.8237 67.776 20.6501C66.567 21.4764 65.1776 22.001 63.7242 22.18L52.0364 23.6226L62.4036 29.2101C63.6929 29.9044 64.7972 30.8974 65.6239 32.1062C66.4506 33.3149 66.9757 34.7041 67.1551 36.1575L68.5977 47.8453L74.1906 37.4792C74.885 36.1898 75.8784 35.0857 77.0874 34.2593C78.2965 33.433 79.686 32.9084 81.1395 32.7297L92.8258 31.2851L82.4565 25.699Z" fill="#FF7A8C"/>
<path d="M105.372 75.5028C105.957 74.8833 106.272 74.0568 106.248 73.2051C106.223 72.3534 105.862 71.5461 105.243 70.9608L101.435 67.3694L105.028 63.5621C105.602 62.9404 105.908 62.1176 105.878 61.2721C105.849 60.4266 105.488 59.6267 104.873 59.0459C104.258 58.465 103.439 58.1501 102.593 58.1693C101.747 58.1886 100.943 58.5406 100.355 59.1488L96.7622 62.9561L92.9549 59.3629C92.3332 58.7892 91.5103 58.4838 90.6649 58.5128C89.8194 58.5419 89.0195 58.9031 88.4386 59.5181C87.8578 60.1332 87.5428 60.9524 87.5621 61.7982C87.5814 62.6439 87.9334 63.4479 88.5416 64.0359L92.3493 67.6273L88.7596 71.4353C88.4699 71.742 88.2434 72.1027 88.0931 72.497C87.9427 72.8912 87.8715 73.3112 87.8835 73.733C87.8955 74.1548 87.9905 74.5701 88.1629 74.9551C88.3354 75.3402 88.5821 75.6875 88.8888 75.9773C89.1955 76.267 89.5563 76.4935 89.9505 76.6439C90.3448 76.7942 90.7648 76.8654 91.1865 76.8534C91.6083 76.8414 92.0236 76.7465 92.4086 76.574C92.7937 76.4015 93.141 76.1549 93.4308 75.8482L97.0222 72.0405L100.83 75.6319C101.137 75.9218 101.497 76.1484 101.892 76.2988C102.286 76.4492 102.706 76.5204 103.128 76.5084C103.549 76.4964 103.965 76.4015 104.35 76.2289C104.735 76.0564 105.082 75.8096 105.372 75.5028Z" fill="#696EAF"/>
<path d="M105.019 136.977C105.042 136.127 104.726 135.303 104.142 134.685C103.558 134.067 102.753 133.706 101.903 133.68C98.8944 133.605 95.978 134.724 93.7925 136.794C91.607 138.864 90.3305 141.715 90.2424 144.724C90.2193 145.575 90.5356 146.402 91.1216 147.02C91.7076 147.639 92.5154 147.999 93.3673 148.022C94.2191 148.045 95.0452 147.729 95.6638 147.143C96.2825 146.557 96.643 145.749 96.6661 144.898C96.7022 143.591 97.2556 142.352 98.2047 141.453C99.1538 140.554 100.421 140.069 101.728 140.104C102.578 140.124 103.403 139.807 104.02 139.221C104.637 138.635 104.996 137.828 105.019 136.977Z" fill="#FDCB71"/>
<path d="M15.8893 159.285C14.5396 158.146 12.9776 157.287 11.2937 156.756C9.60972 156.225 7.83723 156.034 6.07874 156.192C5.23861 156.278 4.4659 156.691 3.9277 157.341C3.3895 157.992 3.12906 158.829 3.20266 159.67C3.27627 160.511 3.67803 161.29 4.32106 161.837C4.96409 162.384 5.79673 162.657 6.63896 162.595C7.55643 162.514 8.48082 162.615 9.3593 162.892C10.2378 163.169 11.0532 163.616 11.7589 164.207C12.4646 164.799 13.0467 165.524 13.4722 166.341C13.8976 167.158 14.1579 168.051 14.2383 168.968C14.2749 169.389 14.394 169.798 14.5888 170.173C14.7836 170.548 15.0503 170.88 15.3737 171.152C15.6971 171.424 16.0709 171.629 16.4736 171.756C16.8763 171.883 17.3002 171.93 17.7209 171.893C18.1417 171.857 18.5511 171.738 18.9258 171.543C19.3005 171.348 19.6332 171.081 19.9048 170.758C20.1765 170.435 20.3817 170.061 20.5089 169.658C20.6361 169.255 20.6828 168.832 20.6462 168.411C20.4961 166.651 19.9983 164.938 19.1818 163.371C18.3653 161.805 17.2462 160.416 15.8893 159.285Z" fill="#FF7A8C"/>
<path d="M28.0413 49.9221C32.4609 50.7523 36.7167 47.8426 37.547 43.423C38.3772 39.0034 35.4675 34.7476 31.0479 33.9173C26.6283 33.0871 22.3725 35.9968 21.5423 40.4164C20.712 44.836 23.6218 49.0918 28.0413 49.9221Z" fill="#FDCB71"/>
</svg>
