<svg width="313" height="350" viewBox="0 0 313 350" fill="none" xmlns="http://www.w3.org/2000/svg">
<path d="M109.447 266.648C109.447 254.498 119.297 244.648 131.447 244.648H181.092C193.243 244.648 203.092 254.498 203.092 266.648V328C203.092 340.15 193.243 350 181.092 350H131.447C119.297 350 109.447 340.15 109.447 328V266.648Z" fill="#FFF7DF"/>
<path d="M163.379 327.004C161.894 327.004 160.613 326.652 159.538 325.948C158.463 325.239 157.634 324.222 157.052 322.897C156.47 321.567 156.182 319.968 156.188 318.1C156.193 316.232 156.484 314.647 157.061 313.345C157.642 312.037 158.468 311.042 159.538 310.36C160.613 309.673 161.894 309.329 163.379 309.329C164.864 309.329 166.145 309.673 167.22 310.36C168.301 311.042 169.132 312.037 169.714 313.345C170.296 314.653 170.584 316.238 170.579 318.1C170.579 319.973 170.288 321.575 169.706 322.905C169.124 324.236 168.295 325.253 167.22 325.957C166.15 326.655 164.87 327.004 163.379 327.004ZM163.379 323.637C164.266 323.637 164.983 323.185 165.532 322.282C166.081 321.373 166.352 319.979 166.347 318.1C166.347 316.87 166.222 315.855 165.973 315.057C165.723 314.254 165.377 313.655 164.934 313.261C164.49 312.868 163.972 312.671 163.379 312.671C162.498 312.671 161.785 313.117 161.242 314.01C160.699 314.897 160.425 316.26 160.419 318.1C160.414 319.347 160.533 320.381 160.777 321.201C161.026 322.021 161.375 322.634 161.824 323.038C162.273 323.437 162.791 323.637 163.379 323.637Z" fill="#FA6B26"/>
<path d="M147.469 326.822C146.228 326.822 145.125 326.597 144.161 326.148C143.196 325.699 142.434 325.081 141.874 324.294C141.32 323.507 141.032 322.604 141.01 321.584H145C145.034 322.21 145.289 322.715 145.765 323.097C146.242 323.474 146.81 323.663 147.469 323.663C147.985 323.663 148.442 323.549 148.841 323.322C149.24 323.094 149.553 322.776 149.781 322.366C150.008 321.95 150.119 321.473 150.113 320.936C150.119 320.387 150.005 319.908 149.772 319.497C149.545 319.087 149.229 318.769 148.825 318.541C148.426 318.309 147.966 318.192 147.445 318.192C146.951 318.187 146.483 318.295 146.04 318.516C145.602 318.738 145.269 319.04 145.042 319.423L141.409 318.741L142.149 309.562H153.073V312.88H145.532L145.142 316.895H145.241C145.524 316.424 145.979 316.036 146.605 315.731C147.237 315.421 147.954 315.266 148.758 315.266C149.778 315.266 150.687 315.504 151.485 315.981C152.289 316.452 152.92 317.106 153.381 317.943C153.846 318.78 154.079 319.738 154.079 320.819C154.079 321.989 153.802 323.025 153.247 323.929C152.699 324.832 151.928 325.541 150.936 326.057C149.95 326.567 148.794 326.822 147.469 326.822Z" fill="#FA6B26"/>
<path d="M131.812 326.821C130.515 326.821 129.365 326.599 128.361 326.156C127.364 325.707 126.577 325.089 126 324.302C125.424 323.515 125.13 322.609 125.119 321.583H129.259C129.276 321.955 129.395 322.285 129.617 322.573C129.839 322.855 130.141 323.077 130.523 323.238C130.905 323.399 131.341 323.479 131.828 323.479C132.316 323.479 132.746 323.393 133.117 323.221C133.494 323.044 133.788 322.803 133.998 322.498C134.209 322.188 134.311 321.833 134.306 321.434C134.311 321.035 134.198 320.68 133.965 320.37C133.732 320.059 133.402 319.818 132.976 319.646C132.554 319.475 132.056 319.389 131.479 319.389H129.825V316.462H131.479C131.983 316.462 132.427 316.379 132.809 316.213C133.197 316.047 133.499 315.814 133.715 315.514C133.932 315.21 134.037 314.86 134.031 314.467C134.037 314.085 133.945 313.749 133.757 313.461C133.574 313.167 133.316 312.94 132.984 312.779C132.657 312.619 132.277 312.538 131.845 312.538C131.39 312.538 130.978 312.619 130.606 312.779C130.24 312.94 129.949 313.167 129.733 313.461C129.517 313.755 129.403 314.096 129.392 314.484H125.46C125.471 313.469 125.754 312.577 126.308 311.807C126.862 311.031 127.616 310.424 128.569 309.986C129.528 309.548 130.62 309.329 131.845 309.329C133.064 309.329 134.137 309.542 135.062 309.969C135.988 310.396 136.708 310.978 137.224 311.715C137.739 312.447 137.997 313.275 137.997 314.201C138.003 315.16 137.689 315.95 137.058 316.57C136.431 317.191 135.625 317.574 134.638 317.718V317.851C135.957 318.006 136.952 318.433 137.623 319.131C138.299 319.829 138.634 320.702 138.629 321.75C138.629 322.736 138.338 323.612 137.756 324.377C137.179 325.136 136.376 325.735 135.345 326.173C134.32 326.605 133.142 326.821 131.812 326.821Z" fill="#FA6B26"/>
<path d="M141.586 267.753C141.446 267.534 141.19 267.419 140.932 267.467C140.677 267.513 140.475 267.71 140.421 267.966C140.27 268.697 140.053 269.236 139.833 269.63C139.529 262.393 132.589 259.311 132.518 259.275C132.303 259.17 132.047 259.193 131.856 259.336C131.664 259.479 131.567 259.715 131.605 259.95L131.572 261.228C131.419 266.417 127.656 269.571 127.495 269.675C127.475 269.688 127.454 269.704 127.436 269.719C121.066 274.979 125.711 283.481 125.765 283.578C128.108 287.54 132.405 288.616 134.095 288.616C134.527 288.616 134.816 288.585 134.895 288.575C139.613 288.304 142.809 283.332 142.923 283.159C147.2 277.413 141.794 268.078 141.587 267.753L141.586 267.753ZM141.249 281.837C141.234 281.86 140.564 283.154 139.028 284.312C139.697 283.376 140.065 282.389 140.122 281.362C140.267 278.796 138.412 276.976 138.332 276.899C138.325 276.891 138.317 276.886 138.312 276.878C136.052 274.89 135.695 271.707 135.692 271.677C135.669 271.444 135.518 271.242 135.301 271.153C135.084 271.063 134.836 271.099 134.654 271.245C131.822 273.533 131.281 276.684 131.229 278.499C130.769 277.745 130.774 276.738 130.774 276.725C130.779 276.413 130.559 276.14 130.25 276.084C129.943 276.027 129.639 276.201 129.532 276.495C128.3 279.923 128.295 282.604 129.511 284.462C129.654 284.68 129.81 284.874 129.971 285.053C129.008 284.485 128.054 283.627 127.285 282.326C127.129 282.039 123.533 275.299 129.046 270.721C129.488 270.422 133.481 267.556 133.264 261.905C135.171 263.216 138.808 266.7 138.317 272.395C138.299 272.613 138.391 272.827 138.565 272.958C138.739 273.091 138.969 273.124 139.173 273.05C139.309 272.999 140.502 272.585 141.001 270.757C142.131 273.29 143.577 278.07 141.249 281.837L141.249 281.837Z" fill="#FA6B26"/>
<path d="M218.896 148.421C218.896 136.271 228.746 126.421 240.896 126.421H290.542C302.692 126.421 312.542 136.271 312.542 148.421V209.772C312.542 221.922 302.692 231.772 290.542 231.772H240.896C228.746 231.772 218.896 221.922 218.896 209.772V148.421Z" fill="#D5EEE1"/>
<path d="M263.294 208.593C262.052 208.593 260.949 208.369 259.985 207.92C259.02 207.471 258.258 206.853 257.699 206.066C257.144 205.279 256.856 204.375 256.834 203.356H260.825C260.858 203.982 261.113 204.486 261.589 204.869C262.066 205.246 262.634 205.434 263.294 205.434C263.809 205.434 264.266 205.32 264.665 205.093C265.065 204.866 265.378 204.547 265.605 204.137C265.832 203.721 265.943 203.245 265.937 202.707C265.943 202.158 265.829 201.679 265.597 201.269C265.369 200.859 265.053 200.54 264.649 200.313C264.25 200.08 263.79 199.964 263.269 199.964C262.775 199.958 262.307 200.066 261.864 200.288C261.426 200.51 261.093 200.812 260.866 201.194L257.233 200.512L257.973 191.334H268.897V194.651H261.357L260.966 198.667H261.066C261.348 198.196 261.803 197.808 262.429 197.503C263.061 197.192 263.779 197.037 264.582 197.037C265.602 197.037 266.511 197.276 267.309 197.752C268.113 198.223 268.745 198.877 269.205 199.714C269.67 200.551 269.903 201.51 269.903 202.591C269.903 203.76 269.626 204.797 269.072 205.7C268.523 206.603 267.753 207.313 266.761 207.828C265.774 208.338 264.618 208.593 263.294 208.593Z" fill="#059E54"/>
<path d="M252.031 208.602C251.432 208.602 250.92 208.391 250.493 207.97C250.072 207.549 249.864 207.039 249.869 206.44C249.864 205.853 250.072 205.351 250.493 204.936C250.92 204.514 251.432 204.304 252.031 204.304C252.596 204.304 253.095 204.514 253.527 204.936C253.965 205.351 254.187 205.853 254.192 206.44C254.187 206.839 254.082 207.202 253.876 207.529C253.677 207.856 253.414 208.117 253.087 208.311C252.765 208.505 252.413 208.602 252.031 208.602Z" fill="#059E54"/>
<path d="M234.783 208.361V205.401L240.993 199.964C241.458 199.543 241.855 199.158 242.182 198.808C242.509 198.454 242.758 198.099 242.93 197.744C243.102 197.384 243.188 196.993 243.188 196.572C243.188 196.101 243.085 195.699 242.88 195.366C242.675 195.028 242.392 194.768 242.032 194.585C241.672 194.402 241.259 194.311 240.793 194.311C240.322 194.311 239.909 194.408 239.555 194.602C239.2 194.79 238.923 195.064 238.723 195.425C238.529 195.785 238.432 196.223 238.432 196.738H234.533C234.533 195.58 234.794 194.579 235.315 193.737C235.836 192.895 236.567 192.246 237.509 191.792C238.457 191.332 239.557 191.102 240.81 191.102C242.101 191.102 243.224 191.318 244.177 191.75C245.13 192.182 245.868 192.786 246.388 193.562C246.915 194.333 247.178 195.228 247.178 196.248C247.178 196.896 247.048 197.539 246.788 198.177C246.527 198.814 246.059 199.518 245.383 200.288C244.712 201.059 243.759 201.981 242.523 203.057L240.486 204.936V205.044H247.386V208.361H234.783Z" fill="#059E54"/>
<path d="M247.561 168.8C247.596 170.441 249.832 170.906 250.523 169.416L262.643 143.255C263.251 141.943 261.883 140.59 260.571 141.206L234.42 153.49C232.93 154.19 233.415 156.417 235.063 156.438L247.3 156.591L247.561 168.8Z" fill="#059E54"/>
<path d="M218.896 27.8526C218.896 15.7023 228.746 5.85254 240.896 5.85254H290.542C302.692 5.85254 312.542 15.7023 312.542 27.8525V89.2037C312.542 101.354 302.692 111.204 290.542 111.204H240.896C228.746 111.204 218.896 101.354 218.896 89.2037V27.8526Z" fill="#EEEEEF"/>
<path d="M0 27.8526C0 15.7023 9.84974 5.85254 22 5.85254H71.6452C83.7954 5.85254 93.6452 15.7023 93.6452 27.8525V89.2037C93.6452 101.354 83.7954 111.204 71.6452 111.204H22C9.84971 111.204 0 101.354 0 89.2037V27.8526Z" fill="#EEEEEF"/>
<path d="M218.896 266.648C218.896 254.498 228.746 244.648 240.896 244.648H290.542C302.692 244.648 312.542 254.498 312.542 266.648V328C312.542 340.15 302.692 350 290.542 350H240.896C228.746 350 218.896 340.15 218.896 328V266.648Z" fill="#EEEEEF"/>
<path d="M0 266.648C0 254.498 9.84974 244.648 22 244.648H71.6452C83.7954 244.648 93.6452 254.498 93.6452 266.648V328C93.6452 340.15 83.7954 350 71.6452 350H22C9.84971 350 0 340.15 0 328V266.648Z" fill="#EEEEEF"/>
<path d="M0 148.421C0 136.271 9.84974 126.421 22 126.421H71.6452C83.7954 126.421 93.6452 136.271 93.6452 148.421V209.772C93.6452 221.922 83.7954 231.772 71.6452 231.772H22C9.84971 231.772 0 221.922 0 209.772V148.421Z" fill="#FFF2FA"/>
<path d="M31.3066 208.36V191.334H35.4219V198.534H35.6464L41.2747 191.334H46.1216L40.0859 198.933L46.2297 208.36H41.308L37.068 201.668L35.4219 203.746V208.36H31.3066Z" fill="#C73094"/>
<path d="M22.407 208.594C21.1655 208.594 20.0625 208.37 19.0981 207.921C18.1338 207.472 17.3717 206.854 16.8119 206.067C16.2576 205.28 15.9694 204.376 15.9473 203.357H19.9378C19.9711 203.983 20.226 204.487 20.7027 204.87C21.1793 205.247 21.7474 205.435 22.407 205.435C22.9224 205.435 23.3797 205.321 23.7787 205.094C24.1778 204.867 24.4909 204.548 24.7182 204.138C24.9454 203.722 25.0563 203.246 25.0507 202.708C25.0563 202.159 24.9427 201.68 24.7099 201.27C24.4826 200.86 24.1667 200.541 23.7621 200.314C23.3631 200.081 22.903 199.965 22.382 199.965C21.8888 199.959 21.4204 200.067 20.977 200.289C20.5392 200.511 20.2066 200.813 19.9794 201.195L16.3463 200.513L17.0862 191.335H28.0104V194.652H20.4699L20.0792 198.668H20.1789C20.4616 198.197 20.9161 197.809 21.5424 197.504C22.1742 197.193 22.892 197.038 23.6956 197.038C24.7154 197.038 25.6244 197.276 26.4225 197.753C27.2261 198.224 27.858 198.878 28.318 199.715C28.7836 200.552 29.0164 201.511 29.0164 202.592C29.0164 203.761 28.7392 204.798 28.185 205.701C27.6363 206.604 26.8659 207.314 25.8738 207.829C24.8872 208.339 23.7316 208.594 22.407 208.594Z" fill="#C73094"/>
<path d="M23.0127 162.367L18.96 169.569C18.5613 170.275 17.6726 170.524 16.9668 170.13C16.2611 169.731 16.0122 168.843 16.4062 168.137L16.4102 168.135L21.1904 159.635L23.0127 162.367ZM23.6133 147.788C24.0961 147.544 24.6733 147.591 25.1162 147.905L26.5801 148.951C27.0458 149.284 27.276 149.856 27.166 150.419L25.6299 158.382L32.0684 168.036C32.5138 168.709 32.3349 169.616 31.6621 170.066C30.9891 170.512 30.0819 170.333 29.6318 169.66L21.6689 157.718C21.4603 157.406 21.3796 157.023 21.4453 156.653L22.3203 151.708L19.708 153.014L18.8711 157.194C18.7096 157.989 17.9419 158.501 17.1475 158.344L17.1533 158.342C16.3591 158.18 15.8479 157.413 16.0049 156.619L16.9824 151.734C17.0697 151.292 17.358 150.916 17.7607 150.715L23.6133 147.788ZM32.7734 154.294C33.5422 154.55 33.955 155.376 33.6992 156.145C33.4434 156.913 32.6173 157.326 31.8486 157.07L27.6426 155.67L27.6406 155.666L28.2012 152.768L32.7734 154.294ZM26.4609 141.053C28.077 141.053 29.3877 142.363 29.3877 143.979C29.3875 145.595 28.0768 146.905 26.4609 146.905C24.8452 146.905 23.5354 145.595 23.5352 143.979C23.5352 142.364 24.8451 141.053 26.4609 141.053Z" fill="#C73094"/>
<path d="M100.67 142.568C100.67 130.418 110.52 120.568 122.67 120.568H189.874C202.024 120.568 211.874 130.418 211.874 142.568V215.625C211.874 227.776 202.024 237.625 189.874 237.625H122.67C110.52 237.625 100.67 227.776 100.67 215.625V142.568Z" fill="url(#paint0_linear_188_70498)"/>
<path d="M132.41 220.066V203.04H136.525V210.24H136.75L142.378 203.04H147.225L141.189 210.639L147.333 220.066H142.411L138.172 213.374L136.525 215.452V220.066H132.41Z" fill="white"/>
<path d="M123.207 220.3C121.883 220.3 120.699 220.089 119.657 219.668C118.621 219.241 117.806 218.665 117.213 217.939C116.626 217.207 116.332 216.381 116.332 215.461C116.332 214.757 116.501 214.111 116.839 213.524C117.177 212.936 117.635 212.449 118.211 212.061C118.793 211.667 119.441 211.415 120.156 211.304V211.171C119.22 210.999 118.452 210.564 117.853 209.866C117.26 209.168 116.964 208.35 116.964 207.413C116.964 206.527 117.233 205.737 117.77 205.044C118.313 204.351 119.053 203.805 119.99 203.406C120.932 203.007 122.005 202.808 123.207 202.808C124.41 202.808 125.48 203.007 126.417 203.406C127.359 203.805 128.099 204.351 128.636 205.044C129.179 205.737 129.451 206.527 129.451 207.413C129.451 208.356 129.149 209.176 128.545 209.874C127.946 210.567 127.184 210.999 126.259 211.171V211.304C126.968 211.415 127.611 211.667 128.187 212.061C128.769 212.449 129.229 212.936 129.567 213.524C129.911 214.111 130.083 214.757 130.083 215.461C130.083 216.381 129.786 217.207 129.193 217.939C128.6 218.665 127.785 219.241 126.749 219.668C125.718 220.089 124.538 220.3 123.207 220.3ZM123.207 217.382C123.712 217.382 124.155 217.287 124.538 217.099C124.92 216.905 125.219 216.636 125.435 216.292C125.657 215.949 125.768 215.561 125.768 215.129C125.768 214.685 125.657 214.292 125.435 213.948C125.214 213.604 124.909 213.336 124.521 213.142C124.139 212.942 123.701 212.842 123.207 212.842C122.72 212.842 122.282 212.942 121.894 213.142C121.506 213.336 121.201 213.604 120.979 213.948C120.758 214.292 120.647 214.685 120.647 215.129C120.647 215.561 120.755 215.949 120.971 216.292C121.193 216.631 121.495 216.897 121.877 217.091C122.265 217.285 122.709 217.382 123.207 217.382ZM123.207 209.941C123.64 209.941 124.022 209.852 124.355 209.675C124.693 209.497 124.956 209.251 125.145 208.935C125.339 208.619 125.435 208.261 125.435 207.862C125.435 207.463 125.339 207.111 125.145 206.807C124.956 206.502 124.696 206.263 124.363 206.092C124.03 205.914 123.645 205.825 123.207 205.825C122.775 205.825 122.39 205.914 122.052 206.092C121.714 206.263 121.45 206.502 121.262 206.807C121.074 207.111 120.979 207.463 120.979 207.862C120.979 208.261 121.074 208.619 121.262 208.935C121.456 209.245 121.722 209.492 122.06 209.675C122.398 209.852 122.781 209.941 123.207 209.941Z" fill="white"/>
<path d="M123.681 156.515L119.628 163.717C119.229 164.423 118.341 164.672 117.635 164.277C116.929 163.879 116.68 162.99 117.074 162.284L117.077 162.283L121.858 153.782L123.681 156.515ZM124.281 141.936C124.764 141.691 125.342 141.738 125.785 142.053L127.248 143.099C127.714 143.432 127.944 144.003 127.834 144.566L126.298 152.529L132.736 162.184C133.182 162.857 133.003 163.764 132.33 164.214C131.657 164.659 130.75 164.48 130.3 163.808L122.337 151.865C122.128 151.554 122.049 151.171 122.114 150.801L122.988 145.855L120.376 147.161L119.539 151.343C119.377 152.137 118.61 152.648 117.815 152.491L117.821 152.489C117.027 152.328 116.516 151.561 116.673 150.767L117.65 145.883C117.738 145.44 118.026 145.064 118.429 144.862L124.281 141.936ZM133.441 148.441C134.21 148.697 134.624 149.523 134.368 150.292C134.112 151.061 133.286 151.473 132.518 151.218L128.311 149.817L128.31 149.813L128.869 146.916L133.441 148.441ZM127.129 135.2C128.745 135.2 130.056 136.511 130.056 138.127C130.055 139.743 128.745 141.053 127.129 141.053C125.513 141.052 124.203 139.743 124.203 138.127C124.203 136.511 125.513 135.2 127.129 135.2Z" fill="white"/>
<ellipse cx="182.609" cy="149.833" rx="17.5585" ry="17.5585" fill="#2AA8FF"/>
<path fill-rule="evenodd" clip-rule="evenodd" d="M188.315 142.859C188.747 142.187 189.6 142.023 190.218 142.492C190.837 142.961 190.988 143.887 190.557 144.559L182.509 156.809C182.022 157.565 181.021 157.657 180.424 157.013L175.403 151.567C174.868 150.988 174.865 150.047 175.398 149.465C175.931 148.883 176.797 148.881 177.333 149.46L181.201 153.656L188.315 142.859Z" fill="white"/>
<path d="M100.67 22C100.67 9.84974 110.52 0 122.67 0H189.874C202.024 0 211.874 9.84973 211.874 22V95.0569C211.874 107.207 202.024 117.057 189.874 117.057H122.67C110.52 117.057 100.67 107.207 100.67 95.0569V22Z" fill="url(#paint1_linear_188_70498)"/>
<path d="M155.811 99.9142C154.325 99.9142 153.045 99.5622 151.97 98.8583C150.894 98.1489 150.066 97.1319 149.484 95.8072C148.902 94.477 148.614 92.878 148.619 91.0102C148.625 89.1424 148.916 87.5573 149.492 86.2548C150.074 84.9468 150.9 83.9519 151.97 83.2702C153.045 82.5829 154.325 82.2393 155.811 82.2393C157.296 82.2393 158.576 82.5829 159.651 83.2702C160.732 83.9519 161.564 84.9468 162.146 86.2548C162.728 87.5628 163.016 89.1479 163.01 91.0102C163.01 92.8836 162.719 94.4853 162.137 95.8155C161.555 97.1457 160.727 98.1628 159.651 98.8667C158.582 99.565 157.301 99.9142 155.811 99.9142ZM155.811 96.5471C156.697 96.5471 157.415 96.0954 157.964 95.192C158.512 94.283 158.784 92.8891 158.779 91.0102C158.779 89.7798 158.654 88.7655 158.404 87.9674C158.155 87.1637 157.809 86.5652 157.365 86.1716C156.922 85.7781 156.404 85.5814 155.811 85.5814C154.929 85.5814 154.217 86.0275 153.674 86.9199C153.131 87.8067 152.856 89.1701 152.851 91.0102C152.845 92.2573 152.964 93.2909 153.208 94.1112C153.458 94.9315 153.807 95.544 154.256 95.9486C154.705 96.3476 155.223 96.5471 155.811 96.5471Z" fill="white"/>
<path d="M139.213 99.9142C137.728 99.9142 136.447 99.5622 135.372 98.8583C134.297 98.1489 133.468 97.1319 132.886 95.8072C132.304 94.477 132.016 92.878 132.022 91.0102C132.027 89.1424 132.318 87.5573 132.894 86.2548C133.476 84.9468 134.302 83.9519 135.372 83.2702C136.447 82.5829 137.728 82.2393 139.213 82.2393C140.698 82.2393 141.979 82.5829 143.054 83.2702C144.135 83.9519 144.966 84.9468 145.548 86.2548C146.13 87.5628 146.418 89.1479 146.413 91.0102C146.413 92.8836 146.122 94.4853 145.54 95.8155C144.958 97.1457 144.129 98.1628 143.054 98.8667C141.984 99.565 140.704 99.9142 139.213 99.9142ZM139.213 96.5471C140.1 96.5471 140.817 96.0954 141.366 95.192C141.915 94.283 142.186 92.8891 142.181 91.0102C142.181 89.7798 142.056 88.7655 141.807 87.9674C141.557 87.1637 141.211 86.5652 140.768 86.1716C140.324 85.7781 139.806 85.5814 139.213 85.5814C138.332 85.5814 137.619 86.0275 137.076 86.9199C136.533 87.8067 136.259 89.1701 136.253 91.0102C136.248 92.2573 136.367 93.2909 136.611 94.1112C136.86 94.9315 137.209 95.544 137.658 95.9486C138.107 96.3476 138.625 96.5471 139.213 96.5471Z" fill="white"/>
<path d="M123.032 99.7313C121.735 99.7313 120.585 99.5096 119.582 99.0662C118.585 98.6172 117.798 97.9993 117.221 97.2122C116.645 96.4252 116.351 95.519 116.34 94.4937H120.48C120.497 94.865 120.616 95.1948 120.838 95.483C121.059 95.7656 121.361 95.9873 121.744 96.1481C122.126 96.3088 122.561 96.3892 123.049 96.3892C123.537 96.3892 123.966 96.3033 124.338 96.1314C124.714 95.9541 125.008 95.713 125.219 95.4082C125.429 95.0978 125.532 94.7431 125.526 94.344C125.532 93.9449 125.418 93.5902 125.186 93.2798C124.953 92.9695 124.623 92.7284 124.196 92.5566C123.775 92.3847 123.276 92.2988 122.7 92.2988H121.045V89.3724H122.7C123.204 89.3724 123.648 89.2893 124.03 89.123C124.418 88.9567 124.72 88.7239 124.936 88.4246C125.152 88.1198 125.258 87.7706 125.252 87.3771C125.258 86.9947 125.166 86.6594 124.978 86.3712C124.795 86.0774 124.537 85.8502 124.205 85.6894C123.878 85.5287 123.498 85.4483 123.066 85.4483C122.611 85.4483 122.198 85.5287 121.827 85.6894C121.461 85.8502 121.17 86.0774 120.954 86.3712C120.738 86.6649 120.624 87.0058 120.613 87.3938H116.681C116.692 86.3795 116.974 85.4871 117.529 84.7167C118.083 83.9408 118.837 83.3339 119.79 82.896C120.749 82.4582 121.841 82.2393 123.066 82.2393C124.285 82.2393 125.357 82.4526 126.283 82.8794C127.209 83.3062 127.929 83.8881 128.445 84.6253C128.96 85.3569 129.218 86.1855 129.218 87.1111C129.223 88.0699 128.91 88.8597 128.278 89.4805C127.652 90.1012 126.846 90.4837 125.859 90.6278V90.7608C127.178 90.916 128.173 91.3428 128.844 92.0411C129.52 92.7395 129.855 93.6124 129.85 94.6599C129.85 95.6465 129.559 96.5222 128.977 97.2871C128.4 98.0464 127.597 98.645 126.566 99.0828C125.54 99.5151 124.363 99.7313 123.032 99.7313Z" fill="white"/>
<path d="M132.807 23.105C132.667 22.8851 132.411 22.7701 132.153 22.8187C131.897 22.8647 131.695 23.0615 131.642 23.3171C131.491 24.0481 131.274 24.5875 131.054 24.9811C130.75 17.7451 123.81 14.6622 123.738 14.6265C123.524 14.5217 123.268 14.5447 123.076 14.6879C122.885 14.831 122.787 15.0662 122.826 15.3013L122.793 16.5793C122.639 21.7681 118.877 24.9224 118.716 25.0271C118.695 25.0398 118.675 25.0552 118.657 25.0705C112.287 30.331 116.932 38.8326 116.985 38.9294C119.329 42.8913 123.626 43.9674 125.315 43.9674C125.747 43.9674 126.036 43.9367 126.116 43.9265C130.834 43.6556 134.029 38.6841 134.144 38.5101C138.42 32.7643 133.014 23.4292 132.807 23.1047L132.807 23.105ZM132.47 37.1889C132.454 37.212 131.785 38.5053 130.248 39.6632C130.918 38.7277 131.286 37.7411 131.342 36.7135C131.488 34.1472 129.632 32.3274 129.553 32.2505C129.546 32.2428 129.538 32.2377 129.533 32.23C127.273 30.2414 126.915 27.059 126.913 27.0285C126.89 26.7959 126.739 26.5939 126.522 26.5045C126.304 26.415 126.056 26.4508 125.875 26.5965C123.043 28.8842 122.501 32.0358 122.45 33.8505C121.99 33.0965 121.995 32.0894 121.995 32.0766C122 31.7648 121.78 31.4913 121.471 31.4351C121.164 31.3788 120.86 31.5527 120.752 31.8466C119.52 35.2743 119.515 37.9556 120.732 39.8139C120.875 40.0312 121.031 40.2254 121.192 40.4044C120.228 39.8369 119.275 38.9781 118.506 37.6771C118.35 37.3908 114.753 30.6504 120.267 26.0724C120.709 25.7733 124.702 22.908 124.484 17.2566C126.391 18.5679 130.028 22.0517 129.538 27.747C129.52 27.9642 129.612 28.179 129.786 28.3093C129.959 28.4422 130.189 28.4755 130.394 28.4013C130.529 28.3502 131.723 27.9361 132.221 26.1085C133.351 28.6416 134.798 33.4215 132.469 37.1889L132.47 37.1889Z" fill="white"/>
<ellipse cx="182.609" cy="29.2646" rx="17.5585" ry="17.5585" fill="#2AA8FF"/>
<path fill-rule="evenodd" clip-rule="evenodd" d="M188.315 22.2899C188.747 21.6179 189.6 21.4535 190.218 21.9225C190.837 22.3914 190.988 23.318 190.557 23.99L182.509 36.2397C182.022 36.996 181.021 37.0875 180.424 36.4441L175.403 30.9979C174.868 30.4188 174.865 29.478 175.398 28.8961C175.931 28.3141 176.797 28.3113 177.333 28.8903L181.201 33.0869L188.315 22.2899Z" fill="white"/>
<defs>
<linearGradient id="paint0_linear_188_70498" x1="147.493" y1="120.568" x2="147.493" y2="225.92" gradientUnits="userSpaceOnUse">
<stop stop-color="#0097FF"/>
<stop offset="1" stop-color="#007DFF"/>
</linearGradient>
<linearGradient id="paint1_linear_188_70498" x1="147.493" y1="0" x2="147.493" y2="105.351" gradientUnits="userSpaceOnUse">
<stop stop-color="#0097FF"/>
<stop offset="1" stop-color="#007DFF"/>
</linearGradient>
</defs>
</svg>
