<svg width="1476" height="163" viewBox="0 0 1476 163" fill="none" xmlns="http://www.w3.org/2000/svg">
<g clip-path="url(#clip0_194_15177)">
<path d="M262.346 9.25516C411.191 -0.710647 597.464 -12.2134 743.671 28.1308C885.84 67.3612 1068.78 67.4962 1217.06 57.5683C1291.02 52.6162 1356.03 45.1867 1402.53 38.9957C1425.78 35.9008 1444.4 33.1169 1457.18 31.1093C1463.58 30.1057 1468.51 29.2963 1471.84 28.7392C1473.5 28.4606 1474.77 28.2448 1475.61 28.0997C1476.03 28.0272 1476.35 27.9719 1476.56 27.9354C1476.66 27.9173 1476.74 27.9043 1476.79 27.8955C1476.81 27.8911 1476.83 27.8875 1476.84 27.8855C1476.85 27.8845 1476.85 27.8838 1476.85 27.8833C1476.85 27.8833 1476.86 27.8833 1478.93 39.6374C1481.01 51.3913 1481 199.173 1481 199.174C1481 199.175 1480.99 199.176 1480.98 199.177C1480.96 199.18 1480.94 199.185 1480.91 199.19C1480.85 199.2 1480.77 199.215 1480.65 199.235C1480.43 199.275 1480.09 199.332 1479.66 199.407C1478.78 199.558 1477.48 199.781 1475.78 200.066C1472.37 200.635 1467.36 201.458 1460.88 202.475C1447.93 204.508 1429.13 207.319 1405.68 210.441C1358.79 216.683 1293.25 224.174 1218.65 229.169C1069.81 239.135 883.535 239.27 737.329 198.925C595.16 159.695 412.217 170.928 263.939 180.856C189.976 185.808 124.973 193.237 78.4678 199.428C55.2196 202.523 36.6048 205.307 23.8176 207.315C17.4246 208.318 12.4889 209.128 9.15989 209.685C7.49537 209.963 6.23243 210.179 5.39007 210.324C4.96889 210.397 4.65236 210.451 4.44373 210.488C4.33959 210.506 4.2621 210.52 4.21186 210.529C4.1871 210.533 4.16902 210.537 4.1575 210.539C4.15208 210.54 4.14809 210.539 4.1453 210.54C4.1453 210.54 4.14288 210.541 2.06734 198.787C-0.00823401 187.033 -0.00455669 39.2497 0.000487192 39.2489C0.004503 39.2481 0.0116933 39.2469 0.0193474 39.2455C0.0351767 39.2427 0.0579102 39.2395 0.0870223 39.2344C0.146015 39.2241 0.232479 39.2086 0.345518 39.1889C0.571662 39.1494 0.905242 39.0913 1.344 39.0157C2.22234 38.8645 3.52256 38.6434 5.22476 38.3585C8.62908 37.7888 13.6439 36.9662 20.1199 35.9495C33.0717 33.9162 51.871 31.105 75.3215 27.9832C122.214 21.7406 187.748 14.2498 262.346 9.25516Z" fill="white"/>
</g>
<defs>
<clipPath id="clip0_194_15177">
<rect width="1476" height="163" fill="white"/>
</clipPath>
</defs>
</svg>
