<svg width="1476" height="265" viewBox="0 0 1476 265" fill="none" xmlns="http://www.w3.org/2000/svg">
<g clip-path="url(#clip0_194_15180)">
<path d="M-125.484 14.3057C101.753 -0.940219 386.132 -18.5373 609.341 43.182C826.387 103.197 1105.68 103.404 1332.05 88.216C1444.97 80.6401 1544.21 69.2744 1615.21 59.8033C1650.7 55.0687 1679.12 50.8097 1698.64 47.7386C1708.4 46.2031 1715.93 44.9649 1721.02 44.1127C1723.56 43.6866 1725.49 43.3563 1726.77 43.1344C1727.41 43.0235 1727.9 42.9388 1728.22 42.8831C1728.37 42.8553 1728.49 42.8355 1728.57 42.822C1728.61 42.8153 1728.64 42.8098 1728.65 42.8067C1728.66 42.8052 1728.67 42.804 1728.67 42.8033C1728.67 42.8033 1728.68 42.8033 1731.84 60.785C1735.01 78.7662 1735.01 259.339 1735 259.34C1734.99 259.341 1734.98 259.343 1734.97 259.345C1734.95 259.349 1734.91 259.356 1734.87 259.364C1734.78 259.38 1734.65 259.403 1734.47 259.433C1734.13 259.494 1733.62 259.581 1732.95 259.697C1731.61 259.928 1729.62 260.268 1727.02 260.704C1721.83 261.575 1714.17 262.834 1704.28 264.389C1684.51 267.5 1655.81 271.8 1620.01 276.576C1548.42 286.126 1448.37 297.586 1334.48 305.227C1107.25 320.472 683.181 319.767 609.341 305.227C535.5 290.686 439 529 439 529C439 529 -335.208 250.258 -406.205 259.729C-441.698 264.463 -470.117 268.722 -489.638 271.794C-499.398 273.329 -506.934 274.567 -512.016 275.419C-514.557 275.846 -516.485 276.176 -517.771 276.398C-518.414 276.509 -518.897 276.592 -519.216 276.647C-519.375 276.675 -519.493 276.697 -519.57 276.71C-519.608 276.717 -519.635 276.722 -519.653 276.725C-519.661 276.727 -519.667 276.726 -519.671 276.727C-519.671 276.727 -519.675 276.729 -522.844 258.747C-526.013 240.766 -526.007 60.1919 -525.999 60.1906C-525.993 60.1895 -525.982 60.1875 -525.97 60.1855C-525.946 60.1812 -525.912 60.1763 -525.867 60.1685C-525.777 60.1526 -525.645 60.129 -525.473 60.0989C-525.127 60.0385 -524.618 59.9495 -523.948 59.8339C-522.607 59.6026 -520.622 59.2643 -518.024 58.8285C-512.826 57.957 -505.17 56.6985 -495.284 55.1432C-475.51 52.0325 -446.81 47.732 -411.009 42.9561C-339.419 33.4061 -239.37 21.9466 -125.484 14.3057Z" fill="#FF9501"/>
</g>
<defs>
<clipPath id="clip0_194_15180">
<rect width="1476" height="265" fill="white"/>
</clipPath>
</defs>
</svg>
